<?xml version="1.0"?>
<svg version="1.1" xmlns="http://www.w3.org/2000/svg" width="51" height="50" style=""><path fill="#64ffda" d="M51.708984375,24.111328125l-0.0341796875,0l0.0341796875,0q0.15380859375,0.05126953125,0.15380859375,0.1025390625q0,0.068359375-0.076904296875,0.145263671875t-0.179443359375,0.145263671875l-0.1025390625,0.068359375q-0.08544921875,0.05126953125-0.1025390625,0.213623046875t-0.1025390625,0.230712890625q-0.11962890625,0.15380859375-0.29052734375,0.205078125t-0.401611328125,0.068359375t-0.333251953125,0.05126953125q-0.01708984375,0-0.05126953125,0.01708984375t-0.05126953125,0.01708984375q-0.05126953125,0-0.1708984375-0.0341796875t-0.1708984375-0.0341796875l-0.068359375,0q-0.068359375,0-0.205078125,0.01708984375t-0.18798828125,0.01708984375q-0.1708984375,0-0.1708984375-0.068359375l0.0341796875-0.0341796875q-0.0341796875,0.0341796875-0.1708984375,0.13671875q-0.25634765625,0.1708984375-0.42724609375,0.1708984375q-0.2734375,0-0.3759765625-0.2734375q-0.13671875,0.1025390625-0.179443359375,0.3076171875t-0.179443359375,0.3076171875q0,0.068359375-0.076904296875,0.22216796875t-0.093994140625,0.2392578125q0,0.068359375-0.0341796875,0.230712890625t-0.0341796875,0.230712890625q0,0.2392578125,0.0341796875,0.3076171875q0.0341796875,0.1708984375,0.0341796875,0.63232421875l0,0.2392578125q0.068359375,0.2734375,0.068359375,0.73486328125q0,0.35888671875-0.068359375,0.46142578125q0.1025390625-0.1025390625,0.2392578125-0.1025390625q0.22216796875,0,0.22216796875,0.2734375q0,0.068359375-0.05126953125,0.1708984375q-0.068359375,0.15380859375-0.316162109375,0.401611328125t-0.264892578125,0.418701171875q0.01708984375,0,0.05126953125-0.025634765625t0.05126953125-0.025634765625q0.13671875,0,0.13671875,0.15380859375q0,0.13671875-0.13671875,0.2734375q-0.0341796875,0.0341796875-0.0341796875,0.1025390625l0,0.1025390625l0,0.0341796875q0.068359375,0.205078125,0.068359375,0.39306640625q0,0.32470703125-0.1025390625,0.73486328125q-0.0341796875,0.1025390625-0.0341796875,0.2734375q0,0.22216796875,0.1025390625,0.63232421875t0.1025390625,0.63232421875l0,0.13671875q0,0.08544921875,0.01708984375,0.247802734375t0.01708984375,0.247802734375q0,0.4443359375-0.1025390625,1.38427734375t-0.1025390625,1.38427734375q0,0.42724609375,0.0341796875,0.63232421875q0.08544921875-0.08544921875,0.1708984375-0.08544921875q0.1708984375,0,0.1708984375,0.15380859375q0,0.11962890625-0.1025390625,0.1708984375q-0.18798828125,0.11962890625-0.213623046875,0.162353515625t-0.042724609375,0.213623046875q-0.01708984375,0.05126953125-0.01708984375,0.08544921875q0,0.068359375,0.15380859375,0.162353515625t0.15380859375,0.179443359375q0,0.068359375-0.0341796875,0.1025390625q-0.0341796875,0.05126953125-0.093994140625,0.111083984375t-0.08544921875,0.093994140625t-0.025634765625,0.08544921875q0,0.1025390625,0.0341796875,0.1708984375q0.35888671875-0.2392578125,0.4443359375-0.22216796875q0.11962890625,0.068359375,0.11962890625,0.15380859375q0,0.11962890625-0.15380859375,0.205078125q-0.01708984375,0.01708984375-0.179443359375,0.11962890625t-0.196533203125,0.15380859375q0.0341796875,0.1708984375,0.0341796875,0.49560546875q0,0.29052734375,0.068359375,0.97412109375q0.13671875,0.2734375,0.13671875,0.59814453125q0.13671875-0.068359375,0.46142578125-0.068359375q0.3076171875,0,0.3076171875,0.13671875q0,0.1025390625-0.0341796875,0.13671875q0.068359375,0.01708984375,0.247802734375,0.08544921875t0.247802734375,0.068359375q0.1025390625,0,0.1708984375-0.0341796875q0.2392578125-0.11962890625,0.97412109375-0.11962890625q0.3759765625,0,0.68359375,0.042724609375t0.5126953125,0.128173828125t0.1708984375,0.22216796875q-0.01708984375,0.068359375-0.128173828125,0.145263671875t-0.111083984375,0.128173828125l0,0.18798828125l0,0.068359375q0.0341796875,0.068359375,0.0341796875,0.3076171875q0,0.25634765625-0.0341796875,0.32470703125q0.0341796875,0.1025390625,0.0341796875,0.3759765625q0,0.5126953125-0.1025390625,0.76904296875l0,0.13671875q0,0.76904296875-0.42724609375,0.95703125q-0.13671875,0.068359375-0.41015625,0.068359375q-0.18798828125,0-0.32470703125-0.068359375q-0.205078125,0.068359375-0.4443359375,0.068359375l-0.13671875,0q-0.1025390625-0.0341796875-0.35888671875-0.0341796875l-0.3076171875,0q-0.11962890625,0-0.247802734375-0.01708984375t-0.179443359375-0.01708984375q-0.13671875,0-0.2734375,0.068359375q-0.0341796875,0.0341796875-0.1025390625,0.0341796875q-0.05126953125,0-0.25634765625-0.068359375q-0.068359375,0.0341796875-0.2734375,0.0341796875q-0.18798828125,0-0.29052734375,0.0341796875q-0.15380859375,0.1025390625-0.3076171875,0.1025390625q-0.13671875,0-0.2392578125-0.1025390625q-0.15380859375,0.1025390625-0.46142578125,0.1025390625l-0.1708984375,0q-0.22216796875,0-0.32470703125-0.1025390625l-0.1025390625,0q-0.32470703125,0-0.478515625-0.1025390625q-0.068359375,0.0341796875-0.22216796875,0.0341796875l-0.2392578125,0l-0.13671875,0q-0.0341796875,0-0.13671875,0.01708984375t-0.15380859375,0.01708984375q-0.2734375,0-0.478515625-0.068359375q-0.13671875,0.068359375-0.46142578125,0.068359375l-0.1025390625,0q-0.29052734375-0.08544921875-0.66650390625-0.13671875q-0.05126953125,0-0.15380859375,0.01708984375t-0.15380859375,0.01708984375l-0.08544921875,0q-0.341796875,0.1708984375-0.83740234375,0.1708984375q-0.068359375,0-0.179443359375-0.01708984375t-0.162353515625-0.01708984375q-0.13671875-0.0341796875-0.42724609375-0.0341796875l-0.478515625,0l-0.25634765625,0q-0.59814453125-0.08544921875-0.70068359375-0.1025390625q-0.205078125,0.068359375-0.3759765625,0.068359375q-0.1025390625,0-0.13671875-0.0341796875l-0.11962890625,0q-0.08544921875,0-0.247802734375,0.05126953125t-0.264892578125,0.05126953125q-0.11962890625,0-0.18798828125-0.0341796875q-0.068359375,0.0341796875-0.1708984375,0.0341796875q-0.32470703125,0-0.4443359375-0.35888671875q-0.0341796875,0.0341796875-0.11962890625,0.0341796875q-0.13671875,0-0.13671875-0.205078125l0-0.068359375q0.01708984375-0.08544921875,0.128173828125-0.213623046875t0.128173828125-0.213623046875l0-0.41015625q0-0.32470703125,0.0341796875-0.42724609375q-0.0341796875-0.1708984375-0.0341796875-0.56396484375l0-0.205078125q-0.08544921875-0.341796875-0.08544921875-0.59814453125q0-0.205078125,0.05126953125-0.3076171875q0.13671875-0.3076171875,0.90576171875-0.3076171875q0.068359375,0,0.1708984375,0.05126953125t0.1708984375,0.05126953125l0.42724609375,0q0.205078125,0.01708984375,0.538330078125-0.111083984375t0.435791015625-0.145263671875l0.13671875,0l0.29052734375,0q0.0341796875-0.0341796875,0.1025390625-0.0341796875l0.13671875,0l0.068359375,0q-0.0341796875-0.0341796875-0.0341796875-0.13671875q0-0.11962890625,0.068359375-0.264892578125t0.22216796875-0.350341796875l0.1708984375-0.22216796875q0.1025390625-0.1025390625,0.1025390625-0.3076171875l0-0.35888671875q-0.068359375-0.68359375-0.068359375-1.1279296875q0-0.478515625,0.0341796875-0.68359375l0-0.49560546875q-0.01708984375-0.05126953125-0.093994140625-0.08544921875t-0.111083984375-0.08544921875l-0.0341796875-0.068359375q0-0.068359375,0.1025390625-0.18798828125t0.1025390625-0.1708984375q-0.068359375-0.068359375-0.068359375-0.2734375q0-0.0341796875-0.093994140625-0.128173828125t-0.093994140625-0.128173828125q0-0.01708984375,0.08544921875-0.1025390625l0-0.2734375q0-0.05126953125-0.01708984375-0.15380859375t-0.01708984375-0.13671875q0-0.2392578125,0.1025390625-0.4443359375q0.068359375-0.205078125,0.068359375-0.32470703125q0-0.08544921875-0.01708984375-0.247802734375t-0.01708984375-0.230712890625q-0.01708984375-0.1025390625-0.0341796875-0.128173828125t-0.076904296875-0.0341796875t-0.145263671875-0.059814453125q-0.1025390625-0.1025390625-0.1025390625-0.1708984375q0-0.11962890625,0.1025390625-0.1708984375q0.22216796875-0.13671875,0.22216796875-0.2392578125l0-0.32470703125q-0.068359375-0.2734375-0.068359375-0.56396484375q0-0.068359375,0.01708984375-0.18798828125t0.01708984375-0.15380859375q0-0.05126953125-0.01708984375-0.230712890625t-0.01708984375-0.299072265625q0-0.42724609375,0.068359375-0.76904296875q-0.068359375-0.341796875-0.068359375-0.70068359375q0-0.46142578125,0.068359375-0.87158203125q-0.068359375,0.068359375-0.162353515625,0.3759765625t-0.230712890625,0.39306640625q0,0.15380859375-0.2392578125,0.39306640625l0,0.068359375q0,0.2392578125-0.13671875,0.4443359375q-0.08544921875,0.18798828125-0.32470703125,0.80322265625q-0.01708984375,0.0341796875-0.068359375,0.3076171875t-0.13671875,0.35888671875q-0.08544921875,0.25634765625-0.333251953125,0.66650390625t-0.333251953125,0.66650390625q-0.0341796875,0.1025390625-0.11962890625,0.299072265625t-0.11962890625,0.299072265625q-0.01708984375,0.0341796875-0.15380859375,0.2734375t-0.1708984375,0.35888671875q-0.205078125,0.63232421875-0.2734375,0.73486328125q-0.1025390625,0.5126953125-0.13671875,0.59814453125l0,0.068359375q0,0.15380859375-0.22216796875,0.3076171875l0,0.068359375q0,0.29052734375-0.2392578125,0.46142578125q-0.08544921875,0.068359375-0.128173828125,0.13671875t-0.08544921875,0.15380859375t-0.093994140625,0.15380859375q0,0.08544921875-0.1025390625,0.2392578125t-0.11962890625,0.18798828125q-0.068359375,0.205078125-0.13671875,0.3076171875q0,0.01708984375-0.0341796875,0.2392578125t-0.068359375,0.32470703125q-0.01708984375,0.05126953125-0.076904296875,0.384521484375t-0.196533203125,0.452880859375q0,0.068359375-0.128173828125,0.281982421875t-0.196533203125,0.281982421875l0.068359375-0.0341796875q0.08544921875,0,0.15380859375,0.068359375t0.068359375,0.13671875l0,0.0341796875q-0.0341796875,0.068359375-0.093994140625,0.145263671875t-0.15380859375,0.15380859375t-0.111083984375,0.093994140625q-0.13671875,0.13671875-0.341796875,0.2734375q0,0.1708984375-0.08544921875,0.29052734375q-0.05126953125,0.068359375-0.068359375,0.22216796875t-0.068359375,0.22216796875q-0.01708984375,0.08544921875-0.1025390625,0.299072265625t-0.1025390625,0.299072265625q-0.01708984375,0.0341796875-0.068359375,0.18798828125t-0.1025390625,0.205078125q0.01708984375,0.1025390625-0.076904296875,0.32470703125t-0.093994140625,0.2734375q-0.0341796875,0.068359375-0.093994140625,0.22216796875t-0.093994140625,0.22216796875q-0.01708984375,0.05126953125-0.025634765625,0.111083984375t-0.008544921875,0.1025390625t-0.01708984375,0.08544921875t-0.05126953125,0.08544921875t-0.1025390625,0.076904296875q-0.1025390625,0.05126953125-0.179443359375,0.18798828125t-0.128173828125,0.18798828125q-0.2392578125,0.29052734375-0.63232421875,0.29052734375q-0.2392578125,0-0.39306640625-0.1025390625q-0.32470703125,0.2392578125-0.52978515625,0.2392578125q-0.068359375-0.01708984375-0.128173828125-0.1025390625t-0.111083984375-0.1025390625q-0.13671875,0-0.205078125-0.0341796875q-0.15380859375,0.1025390625-0.32470703125,0.1025390625l-0.068359375,0q-0.068359375-0.0341796875-0.1708984375-0.0341796875q-0.05126953125,0-0.15380859375,0.01708984375t-0.18798828125,0.01708984375q-0.29052734375,0-0.5126953125-0.487060546875t-0.25634765625-0.845947265625q-0.29052734375-0.52978515625-0.46142578125-1.09375q-0.13671875-0.2734375-0.1708984375-0.41015625q-0.0341796875-0.0341796875-0.068359375-0.0341796875l-0.05126953125,0l-0.068359375,0q-0.13671875-0.05126953125-0.13671875-0.22216796875q0-0.0341796875,0.01708984375-0.13671875t0.01708984375-0.13671875l0-0.068359375q-0.1025390625-0.13671875-0.213623046875-0.41015625t-0.162353515625-0.35888671875q-0.068359375,0.068359375-0.22216796875,0.068359375q-0.2392578125,0-0.2392578125-0.1708984375q0-0.15380859375,0.1025390625-0.25634765625q0.1025390625-0.15380859375,0.1025390625-0.205078125q0-0.13671875-0.0341796875-0.205078125q-0.13671875,0.13671875-0.2734375,0.13671875l-0.0341796875,0q-0.13671875,0-0.13671875-0.13671875q-0.15380859375,0-0.29052734375-0.068359375q-0.068359375-0.0341796875-0.068359375-0.13671875q0-0.1708984375,0.59814453125-0.56396484375q-0.0341796875-0.08544921875-0.13671875-0.264892578125t-0.13671875-0.264892578125q-0.22216796875-0.2734375-0.333251953125-0.87158203125t-0.230712890625-0.80322265625q-0.32470703125-0.5126953125-0.46142578125-0.93994140625q-0.01708984375-0.05126953125-0.042724609375-0.11962890625t-0.042724609375-0.08544921875t-0.05126953125-0.01708984375t-0.1025390625,0.0341796875l-0.068359375,0q-0.29052734375,0-0.29052734375-0.2392578125q0-0.0341796875,0.08544921875-0.205078125q0.13671875-0.18798828125,0.13671875-0.22216796875q0-0.1025390625-0.0341796875-0.1708984375q-0.1025390625-0.205078125-0.13671875-0.3076171875q-0.13671875-0.18798828125-0.18798828125-0.42724609375l-0.068359375-0.068359375l-0.0341796875,0q-0.068359375,0.0341796875-0.13671875,0.0341796875t-0.068359375-0.1025390625l0.1025390625-0.32470703125q-0.11962890625-0.13671875-0.281982421875-0.469970703125t-0.213623046875-0.435791015625q-0.478515625-0.95703125-0.478515625-1.21337890625q-0.22216796875-0.205078125-0.32470703125-0.9912109375q-0.05126953125-0.1025390625-0.1025390625-0.1025390625q-0.01708984375,0-0.059814453125,0.01708984375t-0.076904296875,0.01708984375l-0.068359375,0q-0.13671875-0.05126953125-0.13671875-0.1708984375q0-0.08544921875,0.093994140625-0.2734375t0.076904296875-0.22216796875q-0.25634765625-0.49560546875-0.49560546875-1.17919921875q-0.2392578125,0.0341796875-0.2392578125,0.41015625l0,0.35888671875q0.13671875-0.068359375,0.341796875-0.068359375q0.22216796875,0,0.22216796875,0.1025390625q0,0.08544921875-0.08544921875,0.1708984375q-0.0341796875,0.05126953125-0.15380859375,0.145263671875t-0.205078125,0.179443359375t-0.08544921875,0.13671875t0.01708984375,0.1708984375t0.01708984375,0.1708984375l0,0.1025390625q0.01708984375,0,0.05126953125-0.01708984375t0.05126953125-0.01708984375q0.1025390625,0,0.1025390625,0.1025390625q0,0.205078125-0.1708984375,0.32470703125l0,0.205078125l0,0.068359375q0.068359375,0.341796875,0.068359375,0.52978515625q0.01708984375,0.1025390625,0.11962890625,0.128173828125t0.15380859375,0.111083984375q0.0341796875,0.0341796875,0.0341796875,0.1025390625t-0.128173828125,0.213623046875t-0.145263671875,0.213623046875l0,0.3076171875l0,0.18798828125q0.0341796875,0.13671875,0.0341796875,0.5810546875q0,0.59814453125-0.068359375,0.73486328125l0,0.068359375q0,0.41015625-0.1708984375,0.9228515625l0,0.13671875q0,0.11962890625,0.05126953125,0.350341796875t0.05126953125,0.350341796875q0.0341796875,0.068359375,0.0341796875,0.2734375q0,0.1025390625-0.0341796875,0.1708984375l0.068359375,0.18798828125l0-0.068359375l0-0.0341796875q0.0341796875,0.068359375,0.13671875,0.1708984375q0.0341796875,0.068359375,0.0341796875,0.1708984375q-0.01708984375,0.11962890625-0.1708984375,0.3076171875t-0.1708984375,0.29052734375l0,0.49560546875q0.08544921875-0.08544921875,0.13671875-0.08544921875q0.205078125,0,0.205078125,0.18798828125q0,0.08544921875-0.13671875,0.1708984375q-0.2392578125,0.11962890625-0.2392578125,0.2734375q0.1025390625,0.9228515625,0.1025390625,0.9912109375q0.01708984375,0.1025390625,0.08544921875,0.316162109375t0.08544921875,0.316162109375q0.0341796875,0.068359375,0.076904296875,0.1708984375t0.059814453125,0.13671875t0.068359375,0.08544921875t0.128173828125,0.076904296875t0.196533203125,0.042724609375q1.298828125,0.25634765625,2.03369140625,0.32470703125q0.1025390625-0.068359375,0.2392578125-0.068359375q0.341796875,0,0.521240234375,0.56396484375t0.179443359375,1.21337890625q0,0.35888671875-0.068359375,0.56396484375q0.0341796875,0.0341796875,0.0341796875,0.205078125q0,0.29052734375-0.1025390625,0.70068359375q0.05126953125,0.1708984375-0.145263671875,0.333251953125t-0.384521484375,0.128173828125q-0.341796875-0.068359375-0.52978515625-0.068359375q-0.41015625,0.068359375-0.66650390625,0.068359375l-0.13671875,0q-0.13671875-0.01708984375-0.41015625,0.11962890625t-0.42724609375,0.11962890625q-0.3759765625,0-0.63232421875-0.1708984375q-0.08544921875,0-0.22216796875-0.0341796875t-0.22216796875-0.0341796875q-0.205078125,0.13671875-0.70068359375,0.13671875l-0.70068359375,0l-0.068359375,0l-0.25634765625,0q-0.1708984375,0-0.2392578125-0.068359375q-0.01708984375,0-0.076904296875,0.01708984375t-0.093994140625,0.01708984375t-0.111083984375-0.01708984375t-0.111083984375-0.01708984375q-0.01708984375,0-0.205078125,0.068359375t-0.2734375,0.068359375l-0.068359375,0q-0.5126953125-0.1025390625-0.56396484375-0.1025390625t-0.162353515625,0.01708984375t-0.162353515625,0.01708984375l-0.068359375,0q-0.068359375,0-0.22216796875,0.0341796875t-0.22216796875,0.0341796875l-0.1025390625,0l-0.11962890625,0q-0.2392578125,0-0.341796875,0.0341796875l-0.068359375,0q-0.05126953125,0-0.46142578125-0.1025390625q-0.2734375,0.068359375-0.76904296875,0.068359375q-0.42724609375,0-0.56396484375-0.13671875q-0.13671875,0.068359375-0.4443359375,0.068359375q-0.46142578125,0-0.63232421875-0.1708984375q-0.2392578125-0.1025390625-0.2392578125-0.70068359375q0-0.22216796875,0.1025390625-0.63232421875q-0.0341796875-0.1025390625-0.0341796875-0.39306640625q0-0.39306640625,0.068359375-0.93994140625q-0.01708984375,0-0.15380859375,0.068359375t-0.205078125,0.068359375q-0.1708984375-0.05126953125-0.1708984375-0.205078125q0-0.05126953125,0.1025390625-0.1025390625q0.1708984375-0.13671875,0.42724609375-0.25634765625l0-0.068359375q0-0.1708984375,0.205078125-0.3759765625q0.13671875-0.13671875,0.46142578125-0.13671875q0.29052734375,0,0.4443359375,0.1025390625q0.01708984375,0,0.05126953125,0.01708984375t0.05126953125,0.01708984375q0.08544921875,0,0.230712890625-0.05126953125t0.230712890625-0.05126953125q0.068359375,0,0.213623046875,0.01708984375t0.213623046875,0.01708984375q0.2734375,0,0.546875-0.22216796875q0.1025390625-0.068359375,0.25634765625-0.068359375q0.068359375,0,0.179443359375,0.01708984375t0.162353515625,0.01708984375q0.1025390625,0,0.1708984375-0.0341796875l0-0.068359375q0-0.13671875,0.13671875-0.478515625t0.11962890625-0.49560546875q-0.01708984375,0-0.059814453125,0.01708984375t-0.076904296875,0.01708984375q-0.29052734375,0-0.29052734375-0.205078125l0-0.0341796875q0.0341796875-0.1025390625,0.22216796875-0.264892578125t0.205078125-0.264892578125l0-0.1025390625q0-0.1025390625,0.0341796875-0.333251953125t0.0341796875-0.333251953125l0-0.1025390625q-0.0341796875,0.0341796875-0.13671875,0.0341796875q-0.05126953125,0-0.1025390625-0.05126953125t-0.05126953125-0.1025390625q0-0.08544921875,0.08544921875-0.1708984375q0.13671875-0.1025390625,0.2392578125-0.3076171875q-0.1025390625-0.615234375-0.1025390625-0.83740234375q0-0.25634765625,0.0341796875-0.32470703125q-0.0341796875-0.1025390625-0.0341796875-0.3759765625q0-0.5810546875,0.1025390625-0.83740234375q0.0341796875-0.068359375,0.0341796875-0.18798828125q0-0.08544921875-0.0341796875-0.264892578125t-0.0341796875-0.247802734375q-0.0341796875,0.0341796875-0.1025390625,0.0341796875q-0.18798828125,0-0.18798828125-0.22216796875q0-0.05126953125,0.05126953125-0.1025390625q0.15380859375-0.25634765625,0.1708984375-0.3759765625q0-0.25634765625,0.0341796875-0.32470703125q0.068359375-0.13671875,0.068359375-0.41015625q0-0.29052734375,0.0341796875-0.42724609375l0-0.068359375l0-0.1025390625q0-0.13671875-0.1025390625-0.1708984375q-0.1025390625-0.05126953125-0.1025390625-0.11962890625t0.08544921875-0.162353515625t0.08544921875-0.111083984375q-0.068359375-0.478515625-0.068359375-0.83740234375l0-0.3076171875q0-0.05126953125-0.01708984375-0.25634765625t-0.01708984375-0.341796875q0-0.42724609375,0.068359375-0.83740234375q-0.0341796875-0.13671875-0.0341796875-0.66650390625l0-0.32470703125l0-0.1025390625q-0.068359375-0.205078125-0.068359375-0.46142578125q0-0.3759765625,0.13671875-0.5126953125q-0.068359375-0.13671875-0.068359375-0.39306640625q0-0.49560546875,0.068359375-0.76904296875q0-0.0341796875-0.01708984375-0.08544921875t-0.01708984375-0.08544921875q0-0.05126953125,0.01708984375-0.18798828125t0.01708984375-0.205078125q0-0.1025390625-0.0341796875-0.1708984375t-0.08544921875-0.205078125t-0.08544921875-0.205078125q-0.0341796875-0.05126953125-0.076904296875-0.162353515625t-0.1025390625-0.179443359375t-0.145263671875-0.08544921875q-0.05126953125-0.0341796875-0.230712890625-0.042724609375t-0.247802734375-0.059814453125q-0.13671875,0.0341796875-0.59814453125,0.0341796875q-0.205078125-0.068359375-0.25634765625-0.205078125q-0.01708984375,0-0.05126953125,0.01708984375t-0.05126953125,0.01708984375t-0.05126953125-0.01708984375t-0.05126953125-0.01708984375q-0.0341796875,0-0.1025390625,0.01708984375t-0.1025390625,0.01708984375q-0.05126953125,0-0.13671875-0.01708984375t-0.11962890625-0.01708984375q-0.05126953125-0.01708984375-0.367431640625-0.05126953125t-0.56396484375-0.1025390625t-0.247802734375-0.1708984375q0-0.01708984375,0.01708984375-0.0341796875t0.01708984375-0.0341796875q-0.2392578125-0.29052734375-0.2392578125-1.11083984375q0-0.42724609375,0.1025390625-0.63232421875q-0.341796875,0.1708984375-0.39306640625,0.1708984375q-0.13671875,0-0.13671875-0.1708984375q0-0.13671875,0.264892578125-0.341796875t0.264892578125-0.32470703125q-0.068359375-0.2734375-0.068359375-0.42724609375q0-0.42724609375,0.341796875-0.66650390625q0.13671875-0.068359375,0.39306640625-0.068359375q0.05126953125,0,0.128173828125,0.01708984375t0.111083984375,0.01708984375q0.2734375-0.068359375,0.52978515625-0.068359375q0.205078125,0,0.3076171875,0.068359375q0.15380859375-0.1025390625,0.46142578125-0.1025390625q0.22216796875,0,0.73486328125,0.1025390625q0.1025390625,0.0341796875,0.281982421875,0.042724609375t0.230712890625,0.025634765625l0.29052734375,0.1025390625q0.3076171875-0.1025390625,0.341796875-0.1025390625q0.1025390625,0,0.18798828125,0.0341796875t0.1025390625,0.0341796875t0.068359375-0.01708984375t0.068359375-0.01708984375l0.3759765625,0q0.0341796875,0,0.162353515625,0.01708984375t0.162353515625,0.01708984375q0.3076171875-0.1025390625,0.66650390625-0.1025390625q0.18798828125,0,0.59814453125,0.068359375q0.13671875-0.068359375,0.2392578125-0.068359375q0.1708984375,0,0.3759765625,0.068359375l0.15380859375,0q0.068359375,0,0.546875-0.13671875q0.205078125-0.068359375,0.32470703125-0.068359375q0.15380859375,0,0.4443359375,0.076904296875t0.39306640625,0.093994140625q0.068359375,0,0.341796875,0.05126953125t0.39306640625,0.05126953125l0.1025390625,0q0.068359375-0.01708984375,0.22216796875-0.093994140625t0.2392578125-0.076904296875q0.068359375,0,0.1708984375-0.05126953125t0.1708984375-0.05126953125q0.05126953125,0,0.093994140625,0.008544921875t0.059814453125,0.025634765625t0.059814453125,0.05126953125t0.076904296875,0.05126953125q0.01708984375,0,0.059814453125-0.01708984375t0.076904296875-0.01708984375q0.3076171875,0,0.4443359375,0.205078125q0.068359375-0.068359375,0.22216796875-0.068359375q0.05126953125,0,0.13671875,0.0341796875t0.13671875,0.0341796875q0.01708984375,0,0.05126953125-0.01708984375t0.05126953125-0.01708984375q0.41015625-0.2734375,0.49560546875-0.2734375q0.0341796875-0.0341796875,0.1025390625-0.0341796875q0.1025390625,0,0.1025390625,0.13671875q0,0.1708984375-0.13671875,0.25634765625q-0.341796875,0.2392578125-0.341796875,0.3076171875q0,0.0341796875,0.1025390625,0.2392578125q0.11962890625,0.2392578125,0.3076171875,0.692138671875t0.205078125,0.504150390625q0.3076171875-0.1025390625,0.35888671875-0.1025390625q0.1708984375,0,0.205078125,0.1708984375q0.0341796875,0.13671875-0.1025390625,0.384521484375t-0.13671875,0.316162109375q0,0.01708984375,0.01708984375,0.0341796875t0.01708984375,0.0341796875q0.05126953125,0.08544921875,0.13671875,0.264892578125t0.13671875,0.264892578125q0.22216796875,0.3759765625,0.49560546875,1.221923828125t0.49560546875,1.221923828125q0.25634765625,0.42724609375,0.572509765625,1.3671875t0.538330078125,1.3330078125q0.1708984375,0.29052734375,0.2392578125,0.70068359375q0.205078125,0.2734375,0.25634765625,0.52978515625q0.35888671875,0.41015625,0.52978515625,1.24755859375q0.05126953125,0.13671875,0.13671875,0.13671875l0.13671875,0l0.1025390625,0q0.205078125,0.0341796875,0.205078125,0.18798828125q0,0.22216796875-0.2392578125,0.3759765625q0.01708984375,0.0341796875,0.1708984375,0.63232421875q0.29052734375,0.56396484375,0.52978515625,1.298828125q0.068359375-0.068359375,0.205078125-0.13671875q0.068359375-0.18798828125,0.1025390625-0.22216796875q0.01708984375-0.05126953125,0.093994140625-0.22216796875t0.093994140625-0.22216796875q0-0.205078125,0.341796875-0.80322265625q0.0341796875-0.05126953125,0.145263671875-0.25634765625t0.145263671875-0.3076171875q-0.05126953125-0.05126953125-0.05126953125-0.1025390625q0-0.2392578125,0.18798828125-0.42724609375q0.1025390625-0.73486328125,0.478515625-1.50390625q0.01708984375-0.3759765625,0.42724609375-0.880126953125t0.46142578125-0.589599609375q-0.35888671875,0.05126953125-0.35888671875-0.13671875q0-0.205078125,0.264892578125-0.59814453125t0.367431640625-0.46142578125q0.18798828125-0.18798828125,0.299072265625-0.606689453125t0.230712890625-0.572509765625t0.247802734375-0.521240234375t0.230712890625-0.504150390625q0-0.08544921875,0.08544921875-0.247802734375t0.1025390625-0.230712890625q0-0.29052734375,0.2392578125-0.52978515625q0-0.29052734375,0.205078125-0.63232421875q0-0.13671875,0.25634765625-0.76904296875q0.05126953125-0.13671875,0.145263671875-0.401611328125t0.128173828125-0.367431640625q0.08544921875-0.3759765625,0.13671875-0.46142578125q0.13671875-0.3076171875,0.521240234375-0.589599609375t0.743408203125-0.281982421875q0.13671875,0,0.205078125,0.0341796875q0.13671875,0.068359375,0.39306640625,0.068359375q0.205078125,0,0.341796875-0.0341796875q0.1025390625-0.1025390625,0.29052734375-0.1025390625q0.05126953125,0,0.1708984375,0.01708984375t0.1708984375,0.01708984375l0.205078125,0l0.46142578125,0q0.068359375,0,0.18798828125-0.01708984375t0.18798828125-0.01708984375q0.22216796875,0,0.35888671875,0.13671875q0.1708984375,0,0.1708984375-0.0341796875l-0.1025390625-0.068359375q0-0.0341796875,0.205078125-0.0341796875q0.0341796875,0,0.111083984375,0.01708984375t0.111083984375,0.01708984375l0.068359375,0q0.15380859375-0.1025390625,0.2392578125-0.1025390625q0.05126953125,0,0.39306640625,0.205078125q0.546875-0.2392578125,1.17919921875-0.2392578125q0.01708984375,0,1.298828125,0.1025390625q0.13671875,0,0.2734375,0.068359375q0.068359375-0.068359375,0.15380859375-0.068359375q0.0341796875,0,0.076904296875,0.01708984375t0.059814453125,0.01708984375q0.1025390625,0.0341796875,0.2734375,0.0341796875q0.22216796875,0,0.29052734375,0.0341796875l0.13671875,0q0.29052734375,0,0.70068359375,0.068359375q0.1025390625-0.0341796875,0.341796875-0.0341796875l0.32470703125,0q0.05126953125,0,0.179443359375-0.01708984375t0.196533203125-0.01708984375l0.1025390625,0l0.1025390625,0q0.08544921875,0,0.29052734375-0.0341796875t0.3076171875-0.0341796875q0.29052734375,0,0.49560546875,0.25634765625q0.3759765625-0.18798828125,0.4443359375-0.18798828125q0.15380859375,0,0.15380859375,0.1025390625q0,0.08544921875-0.0341796875,0.11962890625q-0.05126953125,0.205078125-0.52978515625,0.5810546875q-0.0341796875,0.1025390625-0.0341796875,0.32470703125q0,0.1025390625,0.01708984375,0.333251953125t0.01708984375,0.333251953125l0,0.1708984375q0.068359375-0.068359375,0.205078125-0.068359375q0.1025390625,0,0.1025390625,0.1025390625q0,0.22216796875-0.2392578125,0.32470703125q0.1708984375,0.0341796875,0.1708984375,0.1708984375q0,0.1025390625-0.068359375,0.1708984375l0.13671875,0z M50.59814453125,22.880859375q0.01708984375,0.05126953125-0.205078125,0.213623046875t-0.555419921875,0.3759765625t-0.657958984375,0.418701171875t-0.606689453125,0.367431640625t-0.316162109375,0.196533203125q0.15380859375,0,0.2734375,0.11962890625q0.05126953125,0.05126953125,0.08544921875,0.15380859375t0.05126953125,0.1708984375l0,0.08544921875q0.05126953125-0.39306640625,0.66650390625-0.56396484375q0.15380859375-0.068359375,0.469970703125-0.22216796875t0.469970703125-0.22216796875q0.3076171875-0.18798828125,0.32470703125-0.25634765625l0-0.2392578125l0-0.205078125l0-0.39306640625z M46.923828125,29.05029296875q0-0.068359375-0.0341796875-0.068359375q-0.01708984375,0-0.22216796875,0.205078125q-0.3076171875,0.205078125-0.615234375,0.46142578125q-0.15380859375,0.1025390625-0.538330078125,0.3759765625t-0.589599609375,0.42724609375q-1.5380859375,1.07666015625-2.03369140625,1.50390625q0.46142578125-0.2734375,1.409912109375-0.83740234375t1.427001953125-0.8544921875q0.0341796875-0.01708984375,0.316162109375-0.18798828125t0.452880859375-0.25634765625q0.18798828125-0.1025390625,0.22216796875-0.145263671875t0.13671875-0.213623046875q0-0.205078125,0.068359375-0.41015625z M38.6865234375,33.0322265625l-0.13671875,0.05126953125l0,0.01708984375q0.0341796875-0.0341796875,0.13671875-0.068359375q0.08544921875-0.05126953125,0.15380859375-0.196533203125t0.1025390625-0.179443359375q-0.70068359375,0.3076171875-2.59765625,1.6748046875q-0.205078125,0.11962890625-0.555419921875,0.384521484375t-0.555419921875,0.384521484375q-0.205078125,0.13671875-0.281982421875,0.213623046875t-0.145263671875,0.281982421875q0.0341796875-0.068359375,0.128173828125-0.15380859375t0.230712890625-0.1708984375t0.1708984375-0.1025390625q0.205078125-0.13671875,0.623779296875-0.435791015625t0.640869140625-0.435791015625q1.435546875-0.9912109375,2.0849609375-1.2646484375z M35.576171875,33.69873046875l0,0.068359375q1.45263671875-1.04248046875,2.30712890625-1.5380859375q0.0341796875-0.01708984375,0.247802734375-0.15380859375l0.42724609375-0.2734375t0.4443359375-0.299072265625t0.3759765625-0.299072265625t0.128173828125-0.205078125q-1.0595703125,0.63232421875-2.10205078125,1.3330078125q-0.2392578125,0.13671875-0.709228515625,0.418701171875t-0.623779296875,0.384521484375q-0.11962890625,0.08544921875-0.18798828125,0.145263671875t-0.162353515625,0.205078125t-0.145263671875,0.213623046875z M41.84814453125,27.64892578125q0,0.05126953125,0.384521484375-0.213623046875t0.589599609375-0.418701171875q-0.0341796875,0.0341796875-0.22216796875,0.1025390625t-0.3076171875,0.068359375q-0.1708984375,0-0.1708984375-0.13671875q0-0.068359375,0.0341796875-0.1025390625q-0.2392578125,0.1708984375-0.478515625,0.2734375q0.1708984375,0.1708984375,0.1708984375,0.42724609375z M48.4619140625,22.40234375q-0.70068359375,0.46142578125-3.0078125,1.982421875t-3.57177734375,2.3583984375q1.48681640625-0.8544921875,4.298095703125-2.486572265625t3.187255859375-1.854248046875q-0.0341796875-0.0341796875-0.1708984375-0.0341796875q-0.08544921875,0-0.281982421875,0.0341796875t-0.281982421875,0.0341796875q-0.0341796875,0-0.08544921875-0.01708984375t-0.08544921875-0.01708984375z M47.060546875,24.84619140625q0.35888671875-0.2392578125,1.512451171875-0.999755859375t1.768798828125-1.204833984375q-0.341796875,0.22216796875-2.37548828125,1.444091796875t-3.076171875,1.922607421875q-0.35888671875,0.2734375-1.09375,0.76904296875t-1.11083984375,0.76904296875q-0.41015625,0.22216796875-0.70068359375,0.478515625q-0.13671875,0.08544921875-0.13671875,0.18798828125l0,0.1708984375l0,0.1025390625q0.7177734375-0.63232421875,1.512451171875-1.204833984375t2.076416015625-1.392822265625t1.62353515625-1.04248046875z M46.8212890625,26.45263671875l-0.0341796875,0.0341796875q0.0341796875,0,0.0341796875-0.0341796875q-0.5810546875,0.5810546875-1.82861328125,1.5380859375t-1.5380859375,1.1962890625q-0.97412109375,0.83740234375-1.3671875,1.3671875q-0.205078125,0.205078125-0.205078125,0.341796875l0,0.0341796875q0.15380859375,0.01708984375,0.367431640625-0.1025390625t0.487060546875-0.32470703125t0.32470703125-0.2392578125q0.35888671875-0.25634765625,1.04248046875-0.777587890625t1.025390625-0.760498046875q0.7177734375-0.5810546875,1.09375-0.80322265625q0.05126953125-0.0341796875,0.247802734375-0.128173828125t0.316162109375-0.18798828125t0.13671875-0.196533203125q-0.05126953125-0.11962890625-0.068359375-0.281982421875t-0.01708984375-0.367431640625t-0.01708984375-0.3076171875z M46.56494140625,28.09326171875l-0.068359375,0.08544921875q0-0.05126953125,0.068359375-0.08544921875q-0.341796875,0.25634765625-0.41015625,0.29052734375q0.068359375-0.0341796875,0.41015625-0.29052734375z M41.81396484375,31.3232421875q0.0341796875,0,0.1025390625-0.068359375l-0.1025390625,0l0,0.068359375z M42.75390625,29.35791015625l0.1025390625-0.068359375l-0.2392578125,0.205078125l0.13671875-0.13671875q0.205078125-0.15380859375,0.589599609375-0.487060546875t0.572509765625-0.487060546875q-1.28173828125,0.7861328125-1.82861328125,0.97412109375q-0.0341796875,0.01708984375-0.093994140625,0.042724609375t-0.068359375,0.0341796875l-0.0341796875,0.0341796875t-0.042724609375,0.059814453125t-0.0341796875,0.11962890625q0,0.05126953125-0.01708984375,0.162353515625t-0.01708984375,0.179443359375q0,0.05126953125,0.01708984375,0.179443359375t0.01708984375,0.179443359375q0.41015625-0.5126953125,0.93994140625-0.9912109375z M45.9326171875,24.91455078125q0.478515625-0.3759765625,1.025390625-0.70068359375q-1.7431640625,0.9912109375-4.580078125,2.6318359375q0.11962890625,0.0341796875,0.333251953125-0.068359375t0.504150390625-0.29052734375t0.3076171875-0.205078125q0.39306640625-0.2392578125,1.204833984375-0.68359375t1.204833984375-0.68359375z M40.44677734375,29.08447265625q0,0.01708984375-0.05126953125,0.05126953125t-0.111083984375,0.068359375t-0.076904296875,0.05126953125l0.15380859375-0.05126953125q0.0341796875,0,0.05126953125-0.0341796875q0.01708984375-0.05126953125,0.0341796875-0.08544921875z M41.77978515625,33.1005859375q0.068359375-0.05126953125,0.546875-0.341796875q-0.205078125,0.13671875-0.546875,0.2392578125q-0.0341796875,0.0341796875-0.0341796875,0.068359375z M41.98486328125,32.46826171875l0-0.068359375q-0.0341796875,0-0.0341796875,0.068359375l0.0341796875,0q0-0.15380859375,0.15380859375-0.341796875t0.3076171875-0.3076171875t0.418701171875-0.299072265625t0.281982421875-0.196533203125q0.546875-0.42724609375,2.13623046875-1.5380859375q-1.38427734375,0.76904296875-2.32421875,1.3330078125q-0.39306640625,0.205078125-1.07666015625,0.615234375q-0.1025390625,0.068359375-0.1025390625,0.46142578125l0,0.42724609375q0.1025390625-0.05126953125,0.205078125-0.15380859375z M46.9580078125,28.3154296875q0-0.01708984375-0.7177734375,0.42724609375t-0.95703125,0.615234375q0.22216796875-0.1025390625,0.90576171875-0.478515625q0.05126953125-0.0341796875,0.264892578125-0.145263671875t0.350341796875-0.213623046875t0.15380859375-0.205078125z M47.2314453125,25.3759765625l0-0.0341796875l0,0.0341796875q0-0.18798828125,0.0341796875-0.25634765625q-1.79443359375,1.14501953125-3.53759765625,2.3583984375q-0.93994140625,0.6494140625-1.4013671875,1.04248046875q-0.01708984375,0.01708984375-0.1025390625,0.08544921875t-0.11962890625,0.093994140625t-0.093994140625,0.08544921875t-0.093994140625,0.111083984375t-0.068359375,0.111083984375t-0.0341796875,0.111083984375q0.29052734375-0.08544921875,0.63232421875-0.247802734375t0.56396484375-0.299072265625t0.606689453125-0.39306640625l0.538330078125-0.35888671875q0.0341796875-0.01708984375,0.743408203125-0.52978515625t1.3330078125-0.888671875t0.692138671875-0.25634765625q0.08544921875-0.08544921875,0.1708984375-0.384521484375t0.13671875-0.384521484375z M46.12060546875,22.14599609375l-0.0341796875,0.0341796875l0.0341796875,0l0-0.0341796875q-0.08544921875,0.068359375-0.2734375,0.1025390625t-0.25634765625,0.08544921875q-0.22216796875,0.1708984375-0.49560546875,0.341796875q-0.22216796875,0.13671875-0.606689453125,0.418701171875t-0.606689453125,0.418701171875q-2.40966796875,1.58935546875-2.7001953125,1.79443359375q-1.38427734375,0.90576171875-2.59765625,1.8115234375q-0.1025390625,0.068359375-0.281982421875,0.230712890625t-0.230712890625,0.196533203125q-0.01708984375,0.05126953125-0.0341796875,0.13671875t-0.0341796875,0.13671875q-0.22216796875,0.4443359375-0.22216796875,0.52978515625q0.9912109375-0.5126953125,1.982421875-1.07666015625t2.161865234375-1.273193359375t1.871337890625-1.136474609375t2.13623046875-1.324462890625t1.93115234375-1.204833984375q-0.0341796875-0.01708984375-0.66650390625-0.11962890625q-0.39306640625,0-1.07666015625-0.068359375z M38.80615234375,25.888671875q-0.01708984375,0.01708984375-0.0341796875,0.059814453125t-0.0341796875,0.059814453125q0.95703125-0.478515625,2.44384765625-1.4697265625q-0.2392578125,0.11962890625-0.7177734375,0.3759765625t-0.615234375,0.32470703125q-0.97412109375,0.41015625-1.04248046875,0.6494140625z M44.78759765625,22.24853515625q-0.29052734375,0.15380859375-0.29052734375,0.18798828125q0.15380859375-0.08544921875,0.29052734375-0.18798828125q-0.56396484375,0.2734375-2.06787109375,1.162109375q1.0595703125-0.5126953125,2.06787109375-1.162109375z M42.48046875,22.333984375q-0.18798828125-0.01708984375-0.39306640625,0.1025390625t-0.333251953125,0.247802734375t-0.333251953125,0.35888671875t-0.2734375,0.299072265625q-0.29052734375,0.29052734375-0.914306640625,0.888671875t-0.948486328125,0.9228515625q0.615234375-0.35888671875,2.23876953125-1.38427734375t2.529296875-1.52099609375q-0.0341796875-0.0341796875-0.068359375-0.0341796875q-0.068359375,0-0.25634765625,0.093994140625t-0.3076171875,0.093994140625q-0.1025390625,0-0.13671875-0.0341796875l-0.068359375,0q-0.15380859375,0-0.29052734375-0.068359375q-0.068359375,0.0341796875-0.205078125,0.0341796875l-0.2392578125,0z M41.1474609375,22.4365234375q-0.11962890625,0-0.32470703125-0.01708984375t-0.3076171875-0.01708984375q-0.3759765625,0.32470703125-0.49560546875,0.70068359375q0.068359375-0.0341796875,0.32470703125-0.22216796875t0.478515625-0.316162109375t0.32470703125-0.128173828125z M39.31884765625,24.453125l0,0.05126953125l0-0.05126953125q0,0.18798828125-0.0341796875,0.22216796875q0.3076171875-0.32470703125,0.95703125-0.95703125t0.97412109375-0.93994140625q-0.0341796875,0.01708984375-0.247802734375,0.162353515625t-0.41015625,0.281982421875t-0.42724609375,0.247802734375t-0.350341796875,0.111083984375q-0.068359375,0-0.13671875-0.068359375q-0.08544921875,0.1708984375-0.18798828125,0.5126953125t-0.13671875,0.42724609375z M38.4814453125,26.77734375q0.01708984375-0.05126953125,0.15380859375-0.15380859375t0.32470703125-0.230712890625t0.22216796875-0.145263671875q0.1708984375-0.11962890625,0.52978515625-0.350341796875t0.52978515625-0.350341796875q-0.11962890625,0.068359375-0.469970703125,0.230712890625t-0.546875,0.281982421875t-0.42724609375,0.316162109375t-0.316162109375,0.401611328125z M36.7724609375,28.6572265625l-0.0341796875,0.0341796875l0.0341796875-0.0341796875q-0.1708984375,0.1708984375-0.205078125,0.29052734375q0.205078125-0.08544921875,0.205078125-0.29052734375z M40.9765625,26.9140625q-0.83740234375,0.546875-2.392578125,1.3671875q-0.15380859375,0.1025390625-0.4443359375,0.25634765625t-0.35888671875,0.18798828125q-0.13671875,0.068359375-0.1708984375,0.128173828125t-0.05126953125,0.1708984375t-0.08544921875,0.196533203125q0.59814453125-0.39306640625,3.50341796875-2.30712890625z M36.41357421875,31.2548828125q0,0.0341796875-0.01708984375,0.08544921875t-0.01708984375,0.08544921875q0.4443359375-0.29052734375,1.324462890625-0.880126953125t1.307373046875-0.897216796875q0.29052734375-0.1708984375,0.76904296875-0.5126953125t0.63232421875-0.4443359375t0.2392578125-0.2734375t0.162353515625-0.401611328125t0.128173828125-0.333251953125q-0.42724609375,0.2392578125-1.290283203125,0.73486328125t-1.307373046875,0.73486328125q-0.93994140625,0.56396484375-1.00830078125,0.59814453125q-0.22216796875,0.341796875-0.22216796875,0.3759765625q-0.01708984375,0.01708984375-0.145263671875,0.18798828125t-0.196533203125,0.205078125q0,0.11962890625-0.111083984375,0.230712890625t-0.128173828125,0.145263671875q0,0.11962890625-0.11962890625,0.35888671875z M33.40576171875,35.732421875q-0.01708984375-0.0341796875-0.05126953125-0.11962890625t-0.05126953125-0.11962890625q-0.29052734375,0.42724609375-1.14501953125,0.93994140625q-0.341796875,0.25634765625-1.0595703125,0.743408203125t-1.07666015625,0.760498046875q0.3076171875-0.1708984375,0.897216796875-0.521240234375t0.880126953125-0.521240234375q0.7177734375-0.3759765625,1.1962890625-0.66650390625q0.39306640625-0.25634765625,0.478515625-0.25634765625q0-0.0341796875-0.0341796875-0.111083984375t-0.0341796875-0.128173828125z M32.3291015625,33.1005859375l-0.13671875,0.068359375q0.13671875-0.0341796875,0.13671875-0.068359375q-0.18798828125,0.1025390625-0.572509765625,0.333251953125t-0.589599609375,0.333251953125q1.24755859375-0.49560546875,1.162109375-0.66650390625z M32.6708984375,33.90380859375l-0.1708984375,0.15380859375l0.1708984375-0.15380859375q-0.068359375,0.05126953125-2.06787109375,1.3671875q-0.068359375,0.0341796875-0.299072265625,0.1708984375t-0.341796875,0.196533203125t-0.316162109375,0.18798828125t-0.333251953125,0.22216796875t-0.2734375,0.230712890625t-0.247802734375,0.25634765625q0.1708984375-0.0341796875,0.350341796875-0.111083984375t0.384521484375-0.18798828125t0.333251953125-0.196533203125l0.35888671875-0.2392578125t0.316162109375-0.205078125q0.7861328125-0.478515625,1.69189453125-1.162109375q0.478515625-0.2392578125,0.478515625-0.41015625q0-0.01708984375-0.01708984375-0.059814453125t-0.01708984375-0.059814453125z M32.92724609375,34.4677734375l-0.11962890625,0.1025390625l0.11962890625-0.1025390625q-0.546875,0.59814453125-1.7431640625,1.529541015625t-1.58935546875,1.307373046875q0.35888671875-0.1708984375,0.7861328125-0.42724609375t0.7177734375-0.4443359375t0.777587890625-0.52978515625t0.692138671875-0.478515625q0.0341796875-0.0341796875,0.128173828125-0.08544921875t0.15380859375-0.093994140625t0.128173828125-0.093994140625t0.1025390625-0.111083984375t0.01708984375-0.111083984375q-0.11962890625-0.22216796875-0.1708984375-0.46142578125z M29.98779296875,34.16015625q0.87158203125-0.59814453125,2.05078125-1.2646484375q0.15380859375-0.1025390625,0.15380859375-0.1708984375q0-0.01708984375-0.01708984375-0.042724609375t-0.0341796875-0.076904296875t-0.0341796875-0.08544921875q-0.08544921875-0.341796875-0.1025390625-0.39306640625q-0.18798828125,0.13671875-0.70068359375,0.5126953125t-0.751953125,0.555419921875t-0.68359375,0.52978515625t-0.7177734375,0.59814453125t-0.615234375,0.5810546875t-0.615234375,0.657958984375q0.35888671875-0.22216796875,1.033935546875-0.692138671875t1.033935546875-0.709228515625z M28.056640625,35.9716796875l0.2734375-0.13671875l-0.2734375,0.13671875q1.11083984375-0.615234375,2.27294921875-1.4013671875q-0.05126953125,0.0341796875-0.35888671875,0.179443359375t-0.623779296875,0.3076171875t-0.63232421875,0.350341796875t-0.504150390625,0.341796875t-0.15380859375,0.22216796875z M30.9619140625,29.52880859375q-0.3076171875,0.29052734375-0.95703125,0.897216796875t-0.97412109375,0.897216796875q1.04248046875-0.73486328125,1.79443359375-1.09375q0.0341796875-0.01708984375,0.093994140625-0.0341796875t0.076904296875-0.025634765625t0.05126953125-0.01708984375t0.05126953125-0.025634765625t0.025634765625-0.042724609375t0.008544921875-0.059814453125q-0.0341796875-0.068359375-0.0341796875-0.1025390625q-0.068359375-0.2392578125-0.13671875-0.39306640625z M31.49169921875,30.96435546875l-0.0341796875,0.0341796875l0.0341796875-0.0341796875q-0.49560546875,0.49560546875-3.19580078125,2.8369140625q0.5126953125-0.3076171875,1.512451171875-0.880126953125t1.187744140625-0.692138671875q0.01708984375-0.01708984375,0.08544921875-0.05126953125l0.1708984375-0.08544921875t0.205078125-0.111083984375t0.18798828125-0.111083984375t0.13671875-0.1025390625l0.05126953125-0.0341796875q-0.0341796875-0.05126953125-0.341796875-0.76904296875z M30.46630859375,28.41796875q0.05126953125,0.068359375-0.0341796875,0.18798828125t-0.25634765625,0.25634765625t-0.341796875,0.25634765625t-0.333251953125,0.22216796875t-0.179443359375,0.11962890625q-0.32470703125,0.3076171875-0.70068359375,0.6494140625t-0.83740234375,0.760498046875t-0.73486328125,0.657958984375q0.205078125-0.13671875,1.5380859375-1.204833984375t2.13623046875-1.375732421875q-0.22216796875-0.4443359375-0.25634765625-0.52978515625z M25.85205078125,30.72509765625q1.86279296875-1.09375,1.96533203125-1.162109375q0.13671875-0.068359375,0.76904296875-0.478515625t1.153564453125-0.692138671875t0.623779296875-0.213623046875q0-0.01708984375-0.01708984375-0.05126953125t-0.01708984375-0.068359375q-0.01708984375,0-1.24755859375,0.657958984375t-2.264404296875,1.273193359375t-0.965576171875,0.73486328125z M29.4580078125,25.9228515625q-0.01708984375-0.0341796875-0.076904296875-0.2392578125t-0.128173828125-0.3076171875q-0.63232421875,0.56396484375-1.89697265625,1.6748046875t-1.89697265625,1.6748046875q2.10205078125-1.21337890625,3.70849609375-2.13623046875q0.1025390625-0.068359375,0.32470703125-0.068359375q0.13671875,0,0.13671875,0.1025390625q0,0.11962890625-0.068359375,0.18798828125q-0.2734375,0.35888671875-0.623779296875,0.73486328125t-0.828857421875,0.845947265625t-0.68359375,0.692138671875q1.2646484375-0.9228515625,1.96533203125-1.23046875q0.41015625-0.205078125,0.66650390625-0.205078125l0.1025390625,0q-0.13671875-0.205078125-0.247802734375-0.46142578125t-0.2734375-0.726318359375t-0.179443359375-0.538330078125z M25.048828125,28.6572265625q3.28125-2.92236328125,3.74267578125-3.349609375q-0.3759765625,0.15380859375-0.760498046875,0.3759765625t-0.93994140625,0.5810546875t-0.743408203125,0.478515625q-0.1025390625,0.08544921875-0.52978515625,0.333251953125t-0.73486328125,0.487060546875t-0.32470703125,0.42724609375q0.068359375,0.068359375,0.128173828125,0.18798828125t0.1025390625,0.2734375t0.059814453125,0.205078125z M24.091796875,22.5732421875l-0.3076171875,0.205078125q0.068359375-0.05126953125,0.316162109375-0.196533203125t0.384521484375-0.247802734375q-0.08544921875,0-0.145263671875,0.0341796875t-0.13671875,0.111083984375t-0.111083984375,0.093994140625z M16.96533203125,24.04296875q1.11083984375-1.6064453125,1.14501953125-1.640625q-0.478515625,0.29052734375-0.83740234375,0.478515625q-0.13671875,0.068359375-0.179443359375,0.11962890625t-0.05126953125,0.179443359375t-0.042724609375,0.230712890625q-0.068359375,0.205078125-0.068359375,0.39306640625q0,0.0341796875,0.01708984375,0.11962890625t0.01708984375,0.11962890625z M16.99951171875,22.2998046875q0.1025390625-0.08544921875,0.13671875-0.08544921875l-0.068359375,0q-0.068359375,0-0.068359375,0.08544921875z M23.15185546875,23.58154296875l-0.87158203125,0.52978515625q0.01708984375-0.01708984375,0.042724609375-0.025634765625t0.1025390625-0.059814453125t0.145263671875-0.093994140625t0.15380859375-0.093994140625t0.162353515625-0.1025390625t0.145263671875-0.08544921875l0.1025390625-0.05126953125l0.01708984375-0.01708984375q-0.18798828125,0.11962890625-0.6494140625,0.42724609375l-0.743408203125,0.49560546875t-0.70068359375,0.384521484375t-0.777587890625,0.264892578125q0.068359375,0.1025390625,0.32470703125,0.70068359375q0.35888671875-0.39306640625,0.7861328125-0.777587890625t0.999755859375-0.8544921875t0.828857421875-0.709228515625z M22.041015625,27.47802734375l-0.42724609375,0.205078125q0.18798828125-0.068359375,0.42724609375-0.205078125q-0.068359375,0.0341796875-0.418701171875,0.128173828125t-0.615234375,0.22216796875t-0.264892578125,0.316162109375q0,0.01708984375,0.01708984375,0.05126953125t0.01708984375,0.05126953125q0.751953125-0.478515625,1.2646484375-0.76904296875z M21.61376953125,27.255859375q0.15380859375-0.05126953125,0.32470703125-0.145263671875t0.2734375-0.1708984375t0.1025390625-0.093994140625q-0.13671875,0-0.70068359375,0.41015625q0.76904296875-0.3076171875,1.649169921875-0.83740234375t1.4013671875-0.90576171875t1.495361328125-1.09375q-2.9052734375,1.65771484375-4.5458984375,2.8369140625z M20.8447265625,26.982421875q0.42724609375-0.42724609375,1.016845703125-0.90576171875t0.982666015625-0.760498046875t1.187744140625-0.8203125t1.051025390625-0.726318359375q-0.42724609375,0.2734375-1.307373046875,0.777587890625t-1.324462890625,0.760498046875q-0.25634765625,0.13671875-0.726318359375,0.401611328125t-0.709228515625,0.401611328125q-0.205078125,0.11962890625-0.205078125,0.41015625q0,0.068359375,0.01708984375,0.22216796875t0.01708984375,0.2392578125z M28.58642578125,24.0087890625l-0.73486328125,0.41015625q0.73486328125-0.3759765625,0.73486328125-0.41015625q-0.97412109375,0.5126953125-4.0673828125,2.34130859375q-0.42724609375,0.2392578125-1.24755859375,0.751953125t-1.23046875,0.751953125q-0.97412109375,0.59814453125-1.1279296875,0.70068359375q-0.1708984375,0.13671875-0.1708984375,0.35888671875l0,0.2392578125q1.17919921875-0.8544921875,1.3330078125-0.93994140625q0.68359375-0.46142578125,0.97412109375-0.46142578125q0.1025390625,0,0.1708984375,0.0341796875t0.18798828125,0.0341796875q0.1025390625,0,0.15380859375-0.08544921875t0.068359375-0.2734375l0.01708984375-0.205078125l0-0.1025390625q0-0.205078125,0.2392578125-0.341796875q0.068359375-0.068359375,0.1708984375-0.068359375q0.18798828125,0,0.32470703125,0.205078125q0.0341796875,0.068359375,0.05126953125,0.1708984375q0,0.0341796875,0.01708984375,0.0341796875t0.0341796875-0.008544921875t0.059814453125-0.025634765625t0.076904296875-0.0341796875q-0.1708984375-0.0341796875-0.1708984375-0.1708984375q0-0.205078125,0.1708984375-0.205078125q0.068359375,0,0.1025390625,0.068359375q0.11962890625,0,0.56396484375-0.22216796875q0.70068359375-0.56396484375,2.03369140625-1.435546875q0.49560546875-0.29052734375,0.76904296875-0.478515625q0.08544921875-0.05126953125,0.2734375-0.111083984375t0.25634765625-0.111083984375q0.068359375-0.0341796875,0.068359375-0.13671875q0-0.0341796875-0.042724609375-0.13671875t-0.059814453125-0.13671875z M28.85986328125,24.67529296875q0.01708984375,0.01708984375-0.196533203125,0.179443359375t-0.42724609375,0.316162109375t-0.281982421875,0.205078125q0.63232421875-0.3759765625,1.04248046875-0.46142578125q0-0.1025390625-0.13671875-0.2392578125z M20.810546875,30.0244140625l0.068359375-0.068359375q-0.068359375,0.0341796875-0.068359375,0.068359375q0.25634765625-0.22216796875,0.743408203125-0.623779296875t0.726318359375-0.606689453125q-0.22216796875,0.1025390625-0.615234375,0.316162109375t-0.615234375,0.316162109375q-0.2734375,0.13671875-0.2734375,0.32470703125q0,0.0341796875,0.01708984375,0.11962890625t0.01708984375,0.15380859375z M21.57958984375,29.78515625l0.49560546875-0.39306640625q-0.15380859375,0.11962890625-0.49560546875,0.39306640625l-0.13671875,0.13671875q0.63232421875-0.341796875,1.6064453125-0.97412109375q0.05126953125-0.0341796875,0.15380859375-0.093994140625t0.145263671875-0.093994140625t0.111083984375-0.08544921875t0.111083984375-0.111083984375t0.076904296875-0.145263671875l0-0.1025390625l0-0.29052734375q-0.1025390625,0.068359375-0.213623046875,0.15380859375t-0.179443359375,0.15380859375t-0.1708984375,0.179443359375t-0.1708984375,0.179443359375q-0.59814453125,0.546875-1.3330078125,1.09375z M24.41650390625,29.11865234375l0-0.0341796875l0,0.0341796875z M24.68994140625,27.51220703125l0.1025390625-0.068359375q-0.068359375,0.0341796875-0.1025390625,0.068359375q0.2392578125-0.205078125,0.63232421875-0.46142578125q-0.478515625,0.2734375-0.63232421875,0.46142578125z M20.810546875,31.15234375l0.3076171875-0.25634765625l-0.3076171875,0.25634765625q0.3759765625-0.3076171875,1.1279296875-0.90576171875t1.11083984375-0.888671875q-0.18798828125,0.1025390625-0.794677734375,0.478515625t-0.948486328125,0.546875q-0.0341796875,0.01708984375-0.46142578125,0.2392578125q-0.068359375,0.0341796875-0.068359375,0.1708984375q0,0.05126953125,0.01708984375,0.18798828125t0.01708984375,0.1708984375z M22.67333984375,30.0927734375l0.13671875-0.13671875l-0.13671875,0.13671875l-0.068359375,0.05126953125q-0.068359375,0.05126953125-0.08544921875,0.08544921875q0.01708984375-0.01708984375,0.350341796875-0.22216796875t0.521240234375-0.367431640625t0.18798828125-0.281982421875q-0.15380859375,0.11962890625-0.452880859375,0.367431640625t-0.452880859375,0.367431640625z M29.287109375,23.76953125l0-0.05126953125l0,0.05126953125q0.068359375-0.13671875,0.068359375-0.15380859375l-0.1025390625,0.0341796875q0,0.01708984375,0.01708984375,0.059814453125t0.01708984375,0.059814453125z M24.98046875,25.68359375l0.76904296875-0.4443359375q-0.73486328125,0.41015625-0.76904296875,0.4443359375q1.14501953125-0.68359375,2.8369140625-1.640625q0.01708984375-0.01708984375,0.18798828125-0.1025390625t0.29052734375-0.162353515625t0.1025390625-0.128173828125q-0.08544921875-0.2734375-0.13671875-0.341796875q-1.14501953125,0.9228515625-3.28125,2.37548828125z M27.8173828125,22.2998046875q-0.2392578125,0.1025390625-0.675048828125,0.435791015625t-0.555419921875,0.401611328125q-0.2392578125,0.15380859375-0.70068359375,0.487060546875t-0.70068359375,0.487060546875q-2.06787109375,1.4697265625-2.40966796875,1.7431640625q-0.05126953125,0.0341796875-0.452880859375,0.32470703125t-0.538330078125,0.401611328125t-0.401611328125,0.341796875t-0.435791015625,0.435791015625q1.41845703125-1.1279296875,4.0673828125-2.64892578125q0.3759765625-0.205078125,1.11083984375-0.615234375t1.09375-0.615234375q0.068359375-0.0341796875,0.2734375-0.15380859375t0.367431640625-0.196533203125t0.299072265625-0.093994140625q-0.01708984375-0.0341796875-0.08544921875-0.213623046875t-0.128173828125-0.32470703125t-0.128173828125-0.196533203125z M25.81787109375,22.4365234375q-0.25634765625,0-0.39306640625-0.13671875q-0.0341796875,0.01708984375-0.196533203125,0.093994140625t-0.281982421875,0.179443359375q-0.205078125,0.15380859375-0.59814453125,0.487060546875t-0.59814453125,0.487060546875q-0.3759765625,0.3076171875-1.11083984375,0.931396484375t-1.09375,0.931396484375q2.255859375-1.2646484375,2.87109375-1.640625q0.888671875-0.478515625,1.93115234375-1.1279296875q0.01708984375,0,0.213623046875-0.128173828125t0.3759765625-0.2392578125t0.213623046875-0.093994140625q-0.2392578125,0.11962890625-0.29052734375,0.11962890625l-0.1025390625,0q-0.0341796875,0-0.3759765625,0.068359375q-0.15380859375,0.1025390625-0.32470703125,0.1025390625q-0.0341796875,0-0.11962890625-0.01708984375t-0.11962890625-0.01708984375z M19.1357421875,22.21435546875l-0.0341796875,0l0.0341796875,0q-0.1025390625,0.01708984375-0.213623046875-0.025634765625t-0.145263671875-0.042724609375q-0.068359375,0-0.1708984375,0.1025390625q-0.068359375,0.1025390625-0.213623046875,0.316162109375t-0.213623046875,0.316162109375q-0.3759765625,0.546875-0.90576171875,1.298828125q0.15380859375-0.1025390625,2.734375-1.8115234375q-0.01708984375,0-0.05126953125-0.01708984375t-0.05126953125-0.01708984375t-0.068359375,0.01708984375t-0.068359375,0.01708984375q-0.05126953125,0-0.18798828125-0.068359375q-0.068359375,0-0.22216796875-0.042724609375t-0.22216796875-0.042724609375z M20.7763671875,32.22900390625q0,0.0341796875,0.0341796875,0.0341796875t0.1025390625-0.059814453125t0.15380859375-0.13671875t0.11962890625-0.111083984375q0.341796875-0.35888671875,0.888671875-0.76904296875q0.205078125-0.205078125,0.615234375-0.572509765625t0.63232421875-0.555419921875q-1.1279296875,0.8203125-1.9140625,1.3671875q-0.32470703125,0.18798828125-0.56396484375,0.2734375q-0.068359375,0.0341796875-0.068359375,0.18798828125l0,0.2392578125l0,0.1025390625z M23.61328125,31.1865234375l-0.35888671875,0.1708984375l0.35888671875-0.1708984375q-0.5810546875,0.3076171875-1.86279296875,1.11083984375q-0.068359375,0.05126953125-0.341796875,0.179443359375t-0.418701171875,0.25634765625t-0.145263671875,0.299072265625l0,0.1025390625q0.2734375-0.18798828125,0.83740234375-0.572509765625t0.83740234375-0.572509765625q0.01708984375-0.01708984375,0.32470703125-0.205078125t0.538330078125-0.35888671875t0.230712890625-0.2392578125z M23.5107421875,38.7744140625l-0.22216796875,0.1708984375l0,0q0.05126953125-0.0341796875,0.22216796875-0.1708984375q0.0341796875-0.0341796875,0.0341796875-0.1025390625l0-0.13671875q-0.11962890625,0.068359375-0.350341796875,0.25634765625t-0.350341796875,0.25634765625q-0.70068359375,0.478515625-1.4013671875,0.8544921875q-0.11962890625,0.068359375-0.350341796875,0.205078125t-0.350341796875,0.205078125l0,0.1708984375l0,0.32470703125q0.35888671875-0.2734375,1.324462890625-0.948486328125t1.444091796875-1.085205078125z M24.38232421875,42.48291015625l0.0341796875,0q0,0.068359375-0.1708984375,0.068359375q0.068359375,0,0.2392578125-0.068359375l-0.1025390625,0z M16.99951171875,44.4482421875q0.32470703125-0.22216796875,1.00830078125-0.657958984375t1.025390625-0.675048828125q-0.05126953125-0.01708984375-0.299072265625,0.13671875t-0.5126953125,0.333251953125t-0.316162109375,0.196533203125q-0.42724609375,0.42724609375-0.76904296875,0.42724609375q-0.068359375,0-0.1025390625-0.0341796875q0,0.05126953125-0.01708984375,0.13671875t-0.01708984375,0.13671875z M20.41748046875,41.884765625l0.08544921875-0.068359375q-0.08544921875,0.0341796875-0.08544921875,0.068359375q0.3076171875-0.205078125,0.66650390625-0.41015625l-0.08544921875,0.0341796875q-0.08544921875,0.05126953125-0.179443359375,0.093994140625t-0.18798828125,0.093994140625t-0.15380859375,0.1025390625t-0.059814453125,0.08544921875z M20.60546875,42.48291015625l-0.25634765625,0.1708984375l0.49560546875-0.3076171875q-0.068359375,0.0341796875-0.2392578125,0.13671875q-0.5810546875,0.41015625-2.6318359375,1.72607421875q0.56396484375-0.3076171875,2.6318359375-1.55517578125q1.50390625-0.93994140625,1.845703125-1.17919921875q0.01708984375-0.01708984375,0.230712890625-0.11962890625t0.32470703125-0.179443359375t0.2734375-0.18798828125t0.247802734375-0.213623046875t0.08544921875-0.205078125q-0.478515625,0.32470703125-3.0078125,1.9140625z M23.75,41.14990234375q-0.01708984375-0.01708984375-0.213623046875,0.111083984375t-0.504150390625,0.341796875t-0.589599609375,0.418701171875t-0.555419921875,0.41015625t-0.3076171875,0.22216796875q0.068359375-0.05126953125,0.39306640625-0.264892578125t0.504150390625-0.316162109375t0.469970703125-0.213623046875t0.52978515625-0.111083984375q0.29052734375,0,0.546875,0.205078125q-0.22216796875-0.4443359375-0.2734375-0.80322265625z M23.681640625,42.27783203125l-0.1025390625,0.068359375q0.0341796875,0,0.1025390625-0.068359375q-0.32470703125,0.13671875-1.5380859375,0.97412109375q0.13671875-0.068359375,0.39306640625-0.213623046875t0.41015625-0.230712890625t0.367431640625-0.230712890625t0.367431640625-0.299072265625z M20.8447265625,43.74755859375l-0.63232421875,0.3759765625q0,0.01708984375,0.08544921875-0.025634765625t0.230712890625-0.13671875t0.316162109375-0.213623046875q-1.162109375,0.66650390625-1.8115234375,1.1962890625q0.205078125,0,0.73486328125-0.42724609375q0.2392578125-0.13671875,0.623779296875-0.42724609375t0.452880859375-0.341796875z M20.14404296875,44.97802734375q0.7177734375-0.478515625,1.82861328125-1.162109375q-0.751953125,0.41015625-2.13623046875,1.162109375l0.3076171875,0z M21.88720703125,44.90966796875l0.15380859375-0.11962890625l-0.15380859375,0.11962890625q0.3759765625-0.2734375,1.153564453125-0.7861328125t1.170654296875-0.76904296875q-1.41845703125,0.68359375-2.666015625,1.58935546875q0.05126953125,0,0.1708984375-0.01708984375t0.1708984375-0.01708984375z M21.23779296875,39.57763671875l0.4443359375-0.3076171875q0.0341796875,0-0.4443359375,0.3076171875q1.69189453125-1.11083984375,2.05078125-1.3330078125q0.22216796875-0.11962890625,0.29052734375-0.247802734375t0.1025390625-0.418701171875l0-0.4443359375q-1.640625,1.45263671875-1.7431640625,1.5380859375q-0.068359375,0.068359375-0.39306640625,0.316162109375t-0.546875,0.487060546875t-0.25634765625,0.42724609375q0.3076171875-0.18798828125,0.49560546875-0.32470703125z M23.6474609375,35.6298828125q-0.42724609375,0.41015625-1.256103515625,1.204833984375t-1.239013671875,1.204833984375q1.48681640625-0.95703125,2.32421875-1.3671875q0.068359375-0.0341796875,0.068359375-0.1025390625q0-0.05126953125-0.01708984375-0.1708984375t-0.01708984375-0.1708984375l0-0.11962890625q0-0.068359375,0.068359375-0.2392578125t0.068359375-0.2392578125z M23.7841796875,34.296875q0-0.0341796875-0.0341796875-0.0341796875q0,0.0341796875,0.0341796875,0.0341796875q0-0.0341796875-0.01708984375-0.076904296875t-0.01708984375-0.059814453125q-0.25634765625,0.22216796875-0.880126953125,0.743408203125t-1.07666015625,0.931396484375t-0.811767578125,0.83740234375q1.7431640625-1.00830078125,1.82861328125-1.04248046875q0.615234375-0.39306640625,0.83740234375-0.49560546875q0.13671875-0.08544921875,0.13671875-0.3076171875q0-0.05126953125-0.01708984375-0.179443359375t-0.01708984375-0.179443359375q0-0.13671875,0.0341796875-0.1708984375z M23.75,33.59619140625l-0.1708984375,0.1025390625q0.0341796875,0,0.1025390625-0.042724609375t0.068359375-0.059814453125q-0.341796875,0.22216796875-1.025390625,0.7177734375t-1.04248046875,0.7177734375q-0.0341796875,0.01708984375-0.179443359375,0.128173828125t-0.299072265625,0.18798828125t-0.25634765625,0.076904296875q-0.08544921875,0-0.1708984375-0.08544921875q0.068359375,0.615234375,0.068359375,0.9912109375q0.5126953125-0.546875,1.2646484375-1.1962890625q0.0341796875-0.0341796875,0.35888671875-0.333251953125t0.5126953125-0.435791015625q0.73486328125-0.52978515625,0.76904296875-0.76904296875z M20.810546875,34.1259765625q0,0.068359375,0.0341796875,0.1025390625q1.1279296875-0.87158203125,1.162109375-0.90576171875q-0.08544921875,0.05126953125-0.401611328125,0.196533203125t-0.521240234375,0.29052734375t-0.2734375,0.316162109375z M21.1865234375,34.638671875l-0.1708984375,0.11962890625q0.068359375-0.05126953125,0.1708984375-0.11962890625q-0.4443359375,0.22216796875-0.4443359375,0.39306640625l0,0.068359375q0.08544921875-0.2392578125,0.4443359375-0.46142578125z M20.7763671875,37.86865234375l0.0341796875,0.0341796875q0.0341796875,0,0.076904296875-0.042724609375t0.093994140625-0.111083984375t0.068359375-0.08544921875q0.1025390625-0.1025390625,0.333251953125-0.316162109375t0.333251953125-0.316162109375l0.9912109375-0.9912109375q-0.2392578125,0.13671875-0.70068359375,0.42724609375t-0.70068359375,0.42724609375q-0.22216796875,0.08544921875-0.52978515625,0.2734375q-0.0341796875,0.0341796875-0.0341796875,0.1708984375q0,0.11962890625,0.01708984375,0.316162109375t0.01708984375,0.213623046875z M22.87841796875,37.4072265625q-0.39306640625,0.205078125-0.39306640625,0.25634765625q0.18798828125-0.08544921875,0.39306640625-0.25634765625q-0.29052734375,0.15380859375-0.794677734375,0.46142578125t-0.709228515625,0.41015625q-0.05126953125,0.0341796875-0.162353515625,0.111083984375t-0.1708984375,0.11962890625t-0.128173828125,0.111083984375t-0.1025390625,0.15380859375l0,0.1708984375l0,0.32470703125q1.025390625-0.97412109375,2.06787109375-1.86279296875z M17.8369140625,43.0810546875l-0.0341796875,0l0.0341796875,0l-0.56396484375,0q-0.1025390625,0-0.1025390625,0.1708984375q0,0.22216796875,0.1025390625,0.52978515625q0.1708984375-0.1025390625,0.52978515625-0.316162109375t0.52978515625-0.316162109375q-0.08544921875,0-0.25634765625-0.0341796875t-0.2392578125-0.0341796875z M18.2470703125,45.01220703125q0.68359375-0.73486328125,0.8203125-0.83740234375q0.1708984375-0.13671875,0.521240234375-0.41015625t0.521240234375-0.41015625q-1.69189453125,1.00830078125-2.34130859375,1.3330078125q-0.63232421875,0.2734375-0.76904296875,0.29052734375q0.0341796875,0.0341796875,0.13671875,0.0341796875q0.05126953125,0,0.1708984375-0.01708984375t0.1708984375-0.01708984375l0.08544921875,0q0.5126953125,0,0.68359375,0.0341796875z M24.14306640625,44.8583984375l0.0341796875,0l-0.0341796875,0q0.08544921875,0.01708984375,0.179443359375,0.05126953125t0.128173828125,0.0341796875q0.01708984375,0,0.1708984375-0.15380859375q0.1025390625-0.1025390625,0.299072265625-0.3076171875t0.299072265625-0.3076171875q0.5126953125-0.5810546875,0.87158203125-1.025390625q-0.3759765625,0.22216796875-0.7861328125,0.487060546875t-0.90576171875,0.5810546875t-0.7861328125,0.504150390625q0.11962890625-0.01708984375,0.29052734375,0.059814453125t0.2392578125,0.076904296875z M26.416015625,44.90966796875l0-0.05126953125q0-0.0341796875-0.0341796875-0.0341796875q0,0.05126953125,0.0341796875,0.08544921875q0.068359375-0.05126953125,0.15380859375-0.08544921875t0.11962890625-0.076904296875t0.0341796875-0.128173828125l0-0.068359375q0-0.29052734375-0.0341796875-0.42724609375q-0.1708984375,0.1025390625-0.521240234375,0.316162109375t-0.521240234375,0.316162109375q0.05126953125,0.01708984375,0.111083984375,0.042724609375t0.111083984375,0.042724609375t0.11962890625,0.01708984375q0.13671875-0.068359375,0.1708984375-0.068359375q0.13671875,0,0.25634765625,0.11962890625z M26.7236328125,42.91015625q-0.068359375,0-0.1708984375,0.128173828125t-0.22216796875,0.316162109375t-0.13671875,0.22216796875q-0.1708984375,0.205078125-0.504150390625,0.572509765625t-0.367431640625,0.401611328125q0.39306640625-0.22216796875,1.025390625-0.59814453125q0.2734375-0.13671875,0.41015625-0.2392578125q0.1708984375-0.08544921875,0.247802734375,0.18798828125t0.076904296875,0.5810546875l0,0.13671875l0.0341796875,0.205078125q0.0341796875,0,0.059814453125-0.076904296875t0.042724609375-0.162353515625t0.0341796875-0.1025390625q0-0.01708984375-0.01708984375-0.068359375t-0.01708984375-0.068359375q0-0.068359375,0.0341796875-0.230712890625t0.0341796875-0.230712890625q-0.068359375-0.2734375-0.068359375-0.52978515625l0-0.205078125q-0.01708984375-0.1025390625-0.08544921875-0.13671875t-0.196533203125-0.05126953125t-0.213623046875-0.05126953125z M25.1171875,42.65380859375l-0.068359375,0q0.0341796875,0.068359375,0.0341796875,0.18798828125t-0.059814453125,0.2392578125t-0.179443359375,0.230712890625t-0.213623046875,0.179443359375t-0.264892578125,0.179443359375t-0.22216796875,0.145263671875q-0.18798828125,0.13671875-0.794677734375,0.52978515625t-0.931396484375,0.63232421875q0.546875-0.205078125,1.136474609375-0.56396484375t1.298828125-0.845947265625t1.102294921875-0.726318359375l-0.1025390625,0q-0.13671875,0-0.401611328125-0.08544921875t-0.333251953125-0.1025390625z M23.544921875,39.30419921875l0-0.1025390625q-0.42724609375,0.32470703125-1.307373046875,0.931396484375t-1.324462890625,0.948486328125q0.97412109375-0.59814453125,1.09375-0.70068359375q0.1708984375-0.11962890625,0.521240234375-0.384521484375t0.521240234375-0.384521484375q0.49560546875-0.25634765625,0.49560546875-0.3076171875z M23.681640625,32.46826171875q0.01708984375,0.0341796875-0.281982421875,0.264892578125t-0.623779296875,0.4443359375t-0.42724609375,0.281982421875q0.73486328125-0.4443359375,1.09375-0.59814453125q0.1708984375-0.05126953125,0.205078125-0.076904296875t0.0341796875-0.093994140625l0-0.22216796875z M22.177734375,31.630859375l0.2392578125-0.13671875q-0.2392578125,0.13671875-0.2734375,0.13671875l0.0341796875,0q0.1708984375-0.1025390625,0.606689453125-0.367431640625t0.692138671875-0.401611328125q0.1025390625-0.068359375,0.1025390625-0.2734375l0-0.29052734375q-0.3076171875,0.25634765625-0.9228515625,0.80322265625t-0.93994140625,0.8203125q0.068359375-0.05126953125,0.230712890625-0.145263671875t0.230712890625-0.145263671875z M28.68896484375,27.255859375q-2.06787109375,1.1962890625-2.802734375,1.62353515625q-0.08544921875,0.05126953125-0.264892578125,0.15380859375t-0.264892578125,0.15380859375q-0.068359375,0.0341796875-0.068359375,0.1025390625q0,0.01708984375,0.008544921875,0.0341796875t0.025634765625,0.059814453125t0.0341796875,0.076904296875q0.068359375,0.13671875,0.179443359375,0.42724609375t0.179443359375,0.41015625q0.32470703125-0.341796875,1.3671875-1.392822265625t1.6064453125-1.649169921875z M26.05712890625,31.2890625q0.068359375,0.11962890625,0.1708984375,0.49560546875q0.2392578125-0.205078125,0.63232421875-0.555419921875t0.726318359375-0.640869140625t0.606689453125-0.56396484375q-1.298828125,0.63232421875-1.708984375,0.80322265625q-0.46142578125,0.15380859375-0.46142578125,0.32470703125q0,0.068359375,0.0341796875,0.13671875z M26.552734375,32.724609375l0.13671875,0.2734375q1.93115234375-1.77734375,4.033203125-3.67431640625q-0.46142578125,0.22216796875-0.948486328125,0.56396484375t-1.051025390625,0.794677734375t-0.87158203125,0.675048828125l-0.22216796875,0.18798828125q-0.22216796875,0.18798828125-0.316162109375,0.247802734375t-0.29052734375,0.18798828125t-0.35888671875,0.179443359375t-0.316162109375,0.0341796875q0.05126953125,0.08544921875,0.1025390625,0.264892578125t0.1025390625,0.264892578125z M27.25341796875,34.1943359375q0,0.01708984375,1.153564453125-0.95703125t1.495361328125-1.28173828125q0.1708984375-0.15380859375,0.546875-0.49560546875t0.546875-0.49560546875q0.05126953125-0.05126953125,0.128173828125-0.11962890625t0.1025390625-0.1025390625t0.05126953125-0.076904296875t0.025634765625-0.111083984375q0-0.01708984375-0.01708984375-0.059814453125t-0.01708984375-0.076904296875q-0.42724609375,0.1708984375-0.845947265625,0.384521484375t-0.931396484375,0.56396484375t-0.743408203125,0.5126953125t-0.863037109375,0.640869140625t-0.73486328125,0.546875q-0.29052734375,0.18798828125-0.29052734375,0.32470703125q0,0.068359375,0.1025390625,0.2734375q0.1708984375,0.22216796875,0.29052734375,0.52978515625z M30.15869140625,33.1005859375q-1.04248046875,0.5810546875-2.10205078125,1.23046875q-0.01708984375,0-0.179443359375,0.068359375t-0.25634765625,0.13671875t-0.093994140625,0.13671875l0,0.05126953125q0.1708984375,0.341796875,0.205078125,0.5126953125q0.5810546875-0.66650390625,2.4267578125-2.13623046875z M28.85986328125,37.80029296875l0-0.0341796875l0,0.0341796875q0.0341796875,0.08544921875,0.13671875,0.56396484375q0.29052734375-0.341796875,1.435546875-1.1279296875q-0.01708984375,0.01708984375-0.25634765625,0.128173828125t-0.546875,0.22216796875t-0.46142578125,0.111083984375q-0.205078125,0-0.205078125-0.15380859375q0-0.068359375,0.0341796875-0.1025390625q0.068359375-0.13671875,0.196533203125-0.2734375t0.341796875-0.299072265625t0.264892578125-0.196533203125q0.205078125-0.15380859375,0.572509765625-0.469970703125t0.555419921875-0.469970703125l-0.205078125,0.13671875q-0.18798828125,0.11962890625-0.452880859375,0.2734375t-0.572509765625,0.316162109375t-0.589599609375,0.2734375t-0.452880859375,0.111083984375q-0.25634765625,0-0.25634765625-0.1708984375l0-0.068359375q0.01708984375-0.15380859375,0.111083984375-0.299072265625t0.2734375-0.281982421875t0.316162109375-0.22216796875t0.341796875-0.196533203125t0.25634765625-0.145263671875q0.3759765625-0.25634765625,1.35009765625-0.8544921875t1.45263671875-0.97412109375q-0.1708984375,0.1025390625-2.7001953125,1.6748046875q-0.0341796875,0.01708984375-0.487060546875,0.264892578125t-0.794677734375,0.478515625t-0.32470703125,0.316162109375q0.1025390625,0.13671875,0.22216796875,0.42724609375t0.1708984375,0.3759765625q0.01708984375,0.01708984375,0.13671875,0.264892578125t0.13671875,0.367431640625z M29.5263671875,39.57763671875q0.1025390625,0.11962890625,1.751708984375-1.28173828125t1.922607421875-1.79443359375q-0.41015625,0.2392578125-1.256103515625,0.760498046875t-1.529541015625,0.90576171875t-1.31591796875,0.675048828125q0.05126953125,0.08544921875,0.15380859375,0.230712890625t0.1708984375,0.2734375t0.1025390625,0.230712890625z M37.47314453125,36.005859375l-0.25634765625,0.15380859375q0.22216796875-0.11962890625,0.25634765625-0.15380859375q-5.1611328125,3.09326171875-7.3828125,4.76806640625q0.478515625-0.341796875,1.409912109375-0.888671875t1.239013671875-0.751953125q1.435546875-0.97412109375,2.666015625-1.65771484375q1.025390625-0.49560546875,1.2646484375-0.546875q0.1708984375-0.0341796875,0.281982421875-0.093994140625t0.196533203125-0.1708984375t0.111083984375-0.162353515625t0.1025390625-0.2392578125t0.111083984375-0.25634765625z M35.90087890625,36.56982421875q0.22216796875-0.13671875,0.6494140625-0.401611328125t0.63232421875-0.401611328125q-0.068359375,0-0.179443359375,0.076904296875t-0.247802734375,0.179443359375t-0.18798828125,0.13671875q-0.1025390625,0.068359375-0.333251953125,0.205078125t-0.333251953125,0.205078125z M35.93505859375,39.8681640625l0-0.0341796875l0,0.0341796875l0-0.22216796875q-0.52978515625,0.46142578125-1.085205078125,0.880126953125t-1.50390625,1.07666015625t-1.153564453125,0.811767578125q0.41015625-0.22216796875,1.21337890625-0.692138671875t1.1962890625-0.709228515625q0.08544921875-0.05126953125,0.281982421875-0.15380859375t0.281982421875-0.15380859375q0.11962890625-0.068359375,0.1708984375-0.11962890625t0.08544921875-0.1025390625t0.08544921875-0.205078125q0.05126953125-0.068359375,0.230712890625-0.196533203125t0.196533203125-0.213623046875z M36.34521484375,38.24462890625q0,0.01708984375-0.32470703125,0.213623046875t-0.73486328125,0.42724609375t-0.4443359375,0.247802734375q-1.79443359375,1.09375-2.03369140625,1.24755859375q-1.11083984375,0.68359375-1.77734375,1.1962890625q-0.0341796875,0.0341796875-0.13671875,0.1025390625l-0.15380859375,0.1025390625t-0.11962890625,0.093994140625t-0.093994140625,0.11962890625t-0.025634765625,0.111083984375q0,0.1025390625,0.0341796875,0.13671875l3.22998046875-1.89697265625q0.41015625-0.22216796875,1.7431640625-1.04248046875q0.05126953125-0.0341796875,0.162353515625-0.08544921875t0.196533203125-0.093994140625t0.1708984375-0.111083984375t0.1025390625-0.13671875l0-0.0341796875q0-0.18798828125,0.205078125-0.59814453125z M30.32958984375,41.7138671875q-0.05126953125-0.068359375,0.751953125-0.623779296875t0.9912109375-0.640869140625q-0.08544921875,0.0341796875-0.743408203125,0.42724609375t-0.999755859375,0.42724609375q-0.1708984375,0-0.1708984375,0.1025390625q0,0.05126953125,0.1708984375,0.3076171875z M33.13232421875,38.27880859375l-0.56396484375,0.35888671875q0.13671875-0.08544921875,0.56396484375-0.35888671875q-0.95703125,0.63232421875-1.708984375,1.09375q-0.05126953125,0.0341796875-0.2734375,0.15380859375t-0.435791015625,0.2392578125t-0.435791015625,0.25634765625t-0.350341796875,0.2734375t-0.093994140625,0.2392578125q0.90576171875-0.70068359375,3.29833984375-2.255859375z M33.20068359375,41.08154296875q-1.4013671875,0.80322265625-2.27294921875,1.298828125q-0.205078125,0.1025390625-0.205078125,0.205078125q0,0.0341796875,0.025634765625,0.08544921875l0.068359375,0.13671875t0.076904296875,0.1708984375q0.7177734375-0.5810546875,2.110595703125-1.563720703125t1.734619140625-1.239013671875q-0.29052734375,0.15380859375-0.828857421875,0.478515625t-0.709228515625,0.42724609375z M34.208984375,42.68798828125l-0.70068359375,0.52978515625q0.1708984375-0.13671875,0.70068359375-0.52978515625q0.05126953125-0.05126953125,0.230712890625-0.1708984375t0.264892578125-0.205078125q-1.5380859375,0.95703125-2.7685546875,1.6064453125q-0.15380859375,0.1025390625-0.3076171875,0.1025390625q-0.205078125,0-0.205078125-0.1708984375q0-0.08544921875,0.1025390625-0.2392578125q-0.25634765625,0.15380859375-0.25634765625,0.2392578125q0,0.0341796875,0.025634765625,0.08544921875t0.059814453125,0.13671875l0.068359375,0.1708984375t0.1025390625,0.2734375t0.1025390625,0.2734375q0.29052734375-0.3759765625,0.692138671875-0.7177734375t1.0595703125-0.794677734375t0.828857421875-0.589599609375z M34.60205078125,42.9443359375l0-0.1025390625q-1.76025390625,1.2646484375-2.44384765625,1.8798828125q0.0341796875,0,0.4443359375-0.2734375q0.15380859375-0.1025390625,0.469970703125-0.299072265625t0.469970703125-0.299072265625q0.13671875-0.08544921875,0.41015625-0.264892578125t0.41015625-0.264892578125q0.068359375-0.0341796875,0.111083984375-0.1025390625t0.076904296875-0.15380859375t0.05126953125-0.11962890625z M32.158203125,43.4228515625l0.341796875-0.205078125q-0.13671875,0-0.341796875,0.205078125q0.2734375-0.15380859375,0.777587890625-0.452880859375t0.760498046875-0.452880859375q0.56396484375-0.3076171875,0.93994140625-0.56396484375l0.11962890625-0.059814453125t0.111083984375-0.059814453125t0.068359375-0.059814453125t0.05126953125-0.093994140625t0.025634765625-0.13671875q-2.0849609375,1.21337890625-2.85400390625,1.8798828125z M38.3447265625,33.73291015625q-0.01708984375,0-0.1025390625,0.059814453125t-0.18798828125,0.11962890625t-0.13671875,0.076904296875q-0.3076171875,0.22216796875-0.70068359375,0.4443359375q-0.5810546875,0.41015625-1.17919921875,0.76904296875q-0.615234375,0.3759765625-0.83740234375,0.49560546875q-0.205078125,0.1025390625-0.29052734375,0.1025390625q-0.1025390625,0-0.1025390625-0.1025390625l0-0.1025390625q-0.068359375,0.22216796875-0.367431640625,0.63232421875t-0.504150390625,0.41015625q-0.18798828125,0-0.2734375-0.2734375q-0.08544921875,0.2392578125-0.299072265625,0.5126953125t-0.384521484375,0.42724609375t-0.521240234375,0.4443359375t-0.418701171875,0.35888671875q-1.0595703125,0.87158203125-2.37548828125,1.79443359375q0,0.0341796875,0.0341796875,0.0341796875q3.19580078125-2.4609375,5.60546875-3.77685546875q0.068359375-0.05126953125,0.46142578125-0.32470703125t0.59814453125-0.39306640625t0.538330078125-0.25634765625t0.606689453125-0.15380859375q0.05126953125-0.01708984375,0.08544921875-0.008544921875t0.068359375,0.025634765625t0.05126953125,0.01708984375q0.05126953125,0,0.1025390625-0.13671875q0-0.3076171875,0.22216796875-0.52978515625q0.0341796875-0.1025390625,0.15380859375-0.333251953125t0.15380859375-0.333251953125z M41.77978515625,33.52783203125l0,0.068359375q0.13671875-0.08544921875,0.401611328125-0.264892578125t0.401611328125-0.264892578125q-0.546875,0.35888671875-0.73486328125,0.35888671875q-0.01708984375,0-0.0341796875-0.01708984375t-0.0341796875-0.01708984375l0,0.13671875z M41.84814453125,34.99755859375q-0.01708984375-0.0341796875,0.32470703125-0.3076171875t0.7861328125-0.606689453125t0.46142578125-0.350341796875q0.2734375-0.22216796875,0.777587890625-0.640869140625t0.760498046875-0.623779296875q-1.5380859375,1.0595703125-2.34130859375,1.55517578125q-0.6494140625,0.32470703125-0.76904296875,0.3759765625l0,0.42724609375l0,0.1708984375z M41.77978515625,36.0400390625q0-0.01708984375,1.435546875-0.97412109375q-0.068359375,0.0341796875-0.478515625,0.22216796875t-0.66650390625,0.3759765625t-0.29052734375,0.3759765625z M44.0185546875,40.73974609375l0.3076171875-0.1708984375l-0.59814453125,0.341796875q0.08544921875-0.068359375,0.29052734375-0.1708984375q0.35888671875-0.18798828125,0.982666015625-0.56396484375t0.828857421875-0.49560546875q0.0341796875-0.01708984375,0.18798828125-0.08544921875t0.281982421875-0.13671875t0.2734375-0.15380859375t0.230712890625-0.162353515625t0.08544921875-0.128173828125q-0.8203125,0.35888671875-2.4951171875,1.3330078125q-1.35009765625,0.83740234375-1.50390625,0.9228515625q-0.35888671875,0.2392578125-0.90576171875,0.5810546875q-0.546875,0.32470703125-0.59814453125,0.39306640625q0.18798828125-0.11962890625,2.6318359375-1.50390625z M46.85546875,39.71435546875l-0.32470703125,0.15380859375q0.11962890625-0.05126953125,0.32470703125-0.15380859375q-0.751953125,0.25634765625-2.30712890625,1.162109375q1.07666015625-0.478515625,2.30712890625-1.162109375z M41.95068359375,38.3642578125l0.0341796875-0.08544921875l-0.0341796875,0.08544921875q0.25634765625-0.32470703125,0.546875-0.6494140625t0.68359375-0.675048828125t0.640869140625-0.56396484375t0.743408203125-0.623779296875t0.66650390625-0.546875q-0.29052734375,0.205078125-1.204833984375,0.8544921875t-1.409912109375,0.97412109375q-0.068359375,0.05126953125-0.22216796875,0.13671875t-0.22216796875,0.128173828125t-0.13671875,0.15380859375t-0.08544921875,0.247802734375l0,0.3759765625l0,0.18798828125z M41.0791015625,43.0126953125l-0.068359375,0.068359375l0.1708984375-0.1025390625q-0.0341796875,0-0.1025390625,0.0341796875q-0.11962890625,0.08544921875-0.384521484375,0.264892578125t-0.384521484375,0.264892578125q0.2734375-0.15380859375,0.828857421875-0.49560546875t0.845947265625-0.49560546875q-0.52978515625,0.29052734375-0.90576171875,0.46142578125z M41.98486328125,40.0732421875l0.87158203125-0.66650390625l-0.87158203125,0.66650390625q2.20458984375-1.69189453125,3.076171875-2.37548828125q0.1708984375-0.13671875,1.1962890625-1.025390625q0.01708984375-0.01708984375,0.111083984375-0.076904296875t0.1708984375-0.11962890625t0.162353515625-0.128173828125t0.128173828125-0.145263671875t0.025634765625-0.128173828125q-0.59814453125,0.35888671875-1.939697265625,1.298828125t-2.093505859375,1.3671875q-0.63232421875,0.35888671875-0.83740234375,0.35888671875q-0.0341796875,0-0.0341796875,0.341796875q0,0.56396484375,0.0341796875,0.63232421875z M44.75341796875,38.3984375l0.341796875-0.32470703125q-0.068359375,0.08544921875-0.341796875,0.32470703125q-0.1708984375,0.08544921875-0.25634765625,0.1708984375q1.1962890625-0.7861328125,1.86279296875-0.9912109375q0.42724609375-0.068359375,0.46142578125-0.3076171875q-0.0341796875-0.068359375-0.0341796875-0.1708984375q0-0.05126953125,0.01708984375-0.179443359375t0.01708984375-0.179443359375l0-0.1025390625q-1.04248046875,0.9228515625-2.06787109375,1.76025390625z M46.85546875,32.9296875q-0.66650390625,0.46142578125-1.99951171875,1.392822265625t-1.99951171875,1.409912109375q1.99951171875-1.21337890625,2.5634765625-1.572265625q0.95703125-0.80322265625,1.21337890625-0.73486328125q0.18798828125,0.068359375,0.18798828125,0.1708984375q0,0.2392578125-0.35888671875,0.59814453125q0.0341796875-0.0341796875,0.13671875-0.0341796875t0.18798828125,0.059814453125t0.068359375,0.179443359375q-0.01708984375,0.068359375-0.093994140625,0.13671875t-0.18798828125,0.145263671875t-0.145263671875,0.111083984375q-0.49560546875,0.341796875-1.00830078125,0.80322265625q-0.1708984375,0.15380859375-0.760498046875,0.6494140625t-0.897216796875,0.7861328125q-0.08544921875,0.08544921875-0.341796875,0.299072265625t-0.39306640625,0.333251953125t-0.333251953125,0.316162109375t-0.333251953125,0.384521484375t-0.2392578125,0.3759765625q0.25634765625-0.08544921875,0.572509765625-0.264892578125t0.49560546875-0.3076171875t0.56396484375-0.41015625t0.469970703125-0.350341796875q1.162109375-0.7861328125,2.30712890625-1.5380859375q0.11962890625-0.068359375,0.18798828125-0.111083984375t0.1025390625-0.1025390625t0.05126953125-0.1025390625t0.042724609375-0.162353515625t0.042724609375-0.18798828125q0-0.49560546875,0.0341796875-0.66650390625q-0.0341796875-0.1025390625-0.0341796875-0.41015625q0-0.42724609375,0.0341796875-0.56396484375q-0.068359375-0.18798828125-0.13671875-0.63232421875z M41.81396484375,36.9287109375q2.40966796875-1.45263671875,2.64892578125-1.62353515625q0.90576171875-0.5810546875,1.55517578125-1.14501953125q-1.41845703125,0.9228515625-2.95654296875,1.8115234375q-0.3759765625,0.25634765625-0.93994140625,0.56396484375q-0.0341796875,0.01708984375-0.093994140625,0.042724609375t-0.068359375,0.0341796875t-0.05126953125,0.0341796875t-0.042724609375,0.0341796875t-0.01708984375,0.0341796875t-0.025634765625,0.059814453125t-0.008544921875,0.068359375l0,0.08544921875z M38.80615234375,42.978515625l0.0341796875,0.0341796875q0-0.0341796875-0.0341796875-0.0341796875q-0.0341796875,0.0341796875-0.18798828125,0.0341796875q-0.05126953125,0-0.18798828125-0.01708984375t-0.18798828125-0.01708984375q-0.1708984375,0-0.1708984375,0.1025390625q0.068359375,0.546875,0.068359375,0.87158203125q0.5810546875-0.35888671875,1.4697265625-0.97412109375q-0.0341796875-0.0341796875-0.1025390625-0.0341796875t-0.2392578125,0.05126953125t-0.25634765625,0.05126953125q-0.068359375,0-0.205078125-0.068359375z M39.4384765625,44.90966796875l0.0341796875,0l-0.0341796875,0q0.1025390625-0.05126953125,0.1708984375-0.05126953125q0.08544921875,0,0.2392578125,0.059814453125t0.2392578125,0.059814453125q0.05126953125,0,0.18798828125-0.068359375q0.18798828125-0.1708984375,0.478515625-0.35888671875q0.3076171875-0.2392578125,0.93994140625-0.73486328125t0.95703125-0.73486328125q0.52978515625-0.3759765625,1.55517578125-1.14501953125t1.55517578125-1.162109375q-3.74267578125,2.13623046875-7.2119140625,4.169921875q0.35888671875-0.11962890625,0.42724609375-0.15380859375q0.29052734375,0,0.46142578125,0.11962890625z M41.77978515625,44.90966796875l0-0.05126953125q0-0.0341796875-0.0341796875-0.0341796875q0,0.05126953125,0.0341796875,0.08544921875q0.1708984375-0.11962890625,0.3759765625-0.11962890625l0.35888671875,0q0.3076171875,0,0.4443359375-0.1025390625q0.25634765625-0.205078125,0.7861328125-0.623779296875t0.80322265625-0.640869140625q0.18798828125-0.1708984375,0.7177734375-0.606689453125t0.888671875-0.760498046875t0.66650390625-0.6494140625q-0.4443359375,0.15380859375-1.93115234375,1.00830078125q-0.615234375,0.35888671875-1.28173828125,0.777587890625t-1.495361328125,0.948486328125t-1.256103515625,0.80322265625q0.1025390625,0,0.333251953125-0.059814453125t0.333251953125-0.059814453125q0.1708984375,0,0.25634765625,0.08544921875z M44.82177734375,44.755859375l-0.068359375,0l0.068359375,0q0.08544921875,0.01708984375,0.15380859375,0.0341796875l0.1025390625,0.025634765625t0.05126953125,0.008544921875q0.08544921875,0,0.22216796875-0.13671875q0.11962890625-0.11962890625,0.350341796875-0.367431640625t0.350341796875-0.367431640625q0.22216796875-0.25634765625,1.11083984375-1.14501953125q-2.23876953125,1.14501953125-3.50341796875,2.05078125q0.0341796875,0,0.1025390625,0.059814453125t0.08544921875,0.059814453125l0.0341796875-0.0341796875q0.1708984375-0.08544921875,0.205078125-0.08544921875q0.08544921875,0,0.1708984375,0.08544921875q0.05126953125-0.05126953125,0.2734375-0.11962890625t0.29052734375-0.068359375z M47.79541015625,42.58544921875q-0.22216796875,0.2392578125-0.68359375,0.726318359375t-0.68359375,0.743408203125q0.90576171875-0.70068359375,1.89697265625-1.28173828125q-0.3759765625-0.18798828125-0.52978515625-0.18798828125z M45.8642578125,44.97802734375q0.22216796875,0,0.32470703125,0.068359375q0.068359375-0.1025390625,0.341796875-0.1025390625q0-0.05126953125,0.1708984375-0.22216796875q0.11962890625-0.1025390625,0.367431640625-0.299072265625t0.367431640625-0.299072265625q0.49560546875-0.42724609375,1.48681640625-1.21337890625q-0.1708984375-0.05126953125-0.469970703125,0.111083984375t-0.6494140625,0.435791015625t-0.435791015625,0.32470703125q-0.29052734375,0.205078125-0.83740234375,0.59814453125t-0.83740234375,0.59814453125l0.068359375,0l0.1025390625,0z M47.3681640625,44.94384765625l0.15380859375-0.11962890625l-0.15380859375,0.11962890625q0.42724609375-0.25634765625,0.9912109375-0.63232421875q-0.63232421875,0.32470703125-1.1279296875,0.63232421875l0.13671875,0z M48.76953125,44.4140625l-0.068359375,0.0341796875l0.13671875-0.1025390625q0,0.0341796875-0.068359375,0.068359375q-0.11962890625,0.08544921875-0.367431640625,0.247802734375t-0.367431640625,0.247802734375q0.11962890625,0.01708984375,0.213623046875,0.01708984375t0.25634765625-0.111083984375t0.2734375-0.18798828125t0.2734375-0.230712890625t0.25634765625-0.247802734375t0.205078125-0.213623046875t0.145263671875-0.15380859375q-0.13671875,0.1025390625-0.4443359375,0.316162109375t-0.4443359375,0.316162109375z M50.66650390625,43.57666015625l0-0.15380859375q-1.41845703125,1.162109375-1.6748046875,1.4013671875q0.1708984375,0.05126953125,0.384521484375-0.05126953125t0.478515625-0.3076171875t0.350341796875-0.25634765625q0.0341796875-0.01708984375,0.145263671875-0.08544921875t0.128173828125-0.076904296875t0.076904296875-0.059814453125t0.068359375-0.1025390625t0.025634765625-0.128173828125t0.01708984375-0.179443359375z M50.205078125,44.8583984375l0.0341796875-0.068359375q-0.0341796875,0.0341796875-0.0341796875,0.068359375q0.1708984375-0.22216796875,0.39306640625-0.2734375q0.0341796875-0.0341796875,0.0341796875-0.13671875l0-0.1025390625q-0.2392578125,0.13671875-0.70068359375,0.4443359375q0.205078125,0.068359375,0.2734375,0.068359375z M49.26513671875,43.046875q0.0341796875-0.0341796875,0.1708984375-0.1025390625q-0.0341796875,0.01708984375-0.08544921875,0.05126953125t-0.08544921875,0.05126953125z M45.02685546875,43.4228515625q0.59814453125-0.39306640625,0.59814453125-0.4443359375q-0.25634765625,0.1708984375-0.59814453125,0.4443359375q0.46142578125-0.32470703125,1.93115234375-1.17919921875q0.2734375-0.1708984375,0.2734375-0.2392578125q0-0.11962890625-0.0341796875-0.18798828125q-0.01708984375-0.0341796875-0.0341796875-0.128173828125t-0.0341796875-0.145263671875q-0.22216796875,0.2392578125-0.5126953125,0.5126953125t-0.504150390625,0.452880859375t-0.56396484375,0.478515625t-0.521240234375,0.435791015625z M46.9580078125,40.4150390625l0-0.13671875q-0.32470703125,0.2392578125-1.50390625,1.136474609375t-1.82861328125,1.358642578125q2.27294921875-1.3330078125,2.7685546875-1.55517578125q0.49560546875-0.205078125,0.52978515625-0.205078125q0.1025390625,0,0.1025390625-0.1708984375q0-0.05126953125-0.0341796875-0.213623046875t-0.0341796875-0.213623046875z M46.35986328125,38.3984375q0.01708984375-0.01708984375,0.111083984375-0.059814453125t0.1708984375-0.08544921875t0.11962890625-0.111083984375t0.025634765625-0.13671875q-0.66650390625,0.341796875-3.16162109375,1.86279296875q-0.068359375,0.05126953125-0.5126953125,0.2734375t-0.794677734375,0.435791015625t-0.333251953125,0.333251953125q0.73486328125-0.42724609375,2.30712890625-1.435546875q1.45263671875-0.90576171875,2.06787109375-1.07666015625z M46.85546875,31.42578125q-0.42724609375,0.32470703125-0.49560546875,0.39306640625q-0.25634765625,0.18798828125-0.70068359375,0.546875t-0.52978515625,0.42724609375q-0.70068359375,0.546875-1.8115234375,1.4697265625q1.025390625-0.6494140625,2.802734375-1.640625q0.05126953125-0.0341796875,0.22216796875-0.11962890625t0.2734375-0.1708984375t0.13671875-0.1708984375q0.05126953125-0.13671875,0.059814453125-0.39306640625t0.042724609375-0.341796875z M46.8212890625,30.79345703125q0-0.0341796875-0.615234375,0.341796875t-1.298828125,0.811767578125t-0.8544921875,0.572509765625q-0.2734375,0.1708984375-0.794677734375,0.521240234375t-0.777587890625,0.521240234375q-0.63232421875,0.32470703125-0.63232421875,0.49560546875q0.59814453125-0.3076171875,2.734375-1.72607421875q0.22216796875-0.13671875,0.6494140625-0.435791015625t0.63232421875-0.435791015625q0.0341796875-0.0341796875,0.29052734375-0.179443359375t0.46142578125-0.281982421875t0.205078125-0.205078125z M47.62451171875,29.6826171875q0.01708984375-0.01708984375,0.05126953125-0.059814453125t0.05126953125-0.059814453125q-0.0341796875,0.01708984375-0.068359375,0.068359375z"/><path fill="#" d=""/></svg>
